<?xml version="1.0" encoding="UTF-8"?>
<svg width="44px" height="35px" viewBox="0 0 44 35" version="1.1" xmlns="http://www.w3.org/2000/svg" xmlns:xlink="http://www.w3.org/1999/xlink">
    <title>Fill 14</title>
    <g id="Page-1" stroke="none" stroke-width="1" fill="none" fill-rule="evenodd">
        <g id="02-Quienes-somos-Copy" transform="translate(-943, -2760)" fill="#515050">
            <g id="Group-19" transform="translate(315, 1894)">
                <g id="Group-4" transform="translate(626, 856.9776)">
                    <g id="Group-14" transform="translate(0, 10)">
                        <path d="M42.4736,31.352 L40.7026,30.042 C38.8166,28.645 36.3746,28.644 34.4866,30.042 L32.7156,31.352 C31.5496,32.214 30.0436,32.214 28.8776,31.352 L27.1076,30.042 C25.2176,28.644 22.7776,28.644 20.8896,30.042 L19.1196,31.352 C17.9556,32.214 16.4496,32.216 15.2816,31.352 L13.5116,30.042 C11.6216,28.644 9.1806,28.644 7.2936,30.042 L5.5236,31.352 C4.8206,31.873 3.9766,32.092 3.1476,31.967 L2.8526,33.945 C4.2106,34.146 5.5806,33.797 6.7126,32.959 L8.4836,31.649 C9.6496,30.788 11.1566,30.787 12.3226,31.649 L14.0916,32.959 C15.9816,34.357 18.4216,34.356 20.3096,32.959 L22.0786,31.649 C23.2446,30.788 24.7516,30.787 25.9176,31.649 L27.6886,32.959 C28.6316,33.658 29.7136,34.008 30.7966,34.008 C31.8786,34.008 32.9606,33.658 33.9056,32.959 L35.6756,31.649 C36.8416,30.787 38.3476,30.787 39.5136,31.649 L41.2846,32.959 C42.4156,33.798 43.7896,34.147 45.1476,33.944 L44.8526,31.967 C44.0166,32.088 43.1756,31.872 42.4736,31.352 L42.4736,31.352 Z M6.7126,25.959 L8.4836,24.649 C9.6496,23.788 11.1566,23.787 12.3226,24.649 L14.0916,25.959 C15.9816,27.357 18.4216,27.355 20.3096,25.959 L22.0786,24.649 C23.2446,23.788 24.7516,23.787 25.9176,24.649 L27.6886,25.959 C28.6316,26.658 29.7136,27.008 30.7966,27.008 C31.8786,27.008 32.9606,26.658 33.9056,25.959 L35.6756,24.649 C36.8416,23.787 38.3476,23.787 39.5136,24.649 L41.2846,25.959 C42.4156,26.798 43.7896,27.149 45.1476,26.944 L44.8526,24.967 C44.0166,25.088 43.1756,24.871 42.4736,24.352 L40.7026,23.042 C38.8166,21.645 36.3746,21.644 34.4866,23.042 L32.7156,24.352 C31.5496,25.214 30.0436,25.214 28.8776,24.352 L27.1076,23.042 C25.2176,21.643 22.7776,21.645 20.8896,23.042 L19.1196,24.352 C17.9556,25.214 16.4496,25.215 15.2816,24.352 L13.5116,23.042 C11.6216,21.643 9.1806,21.645 7.2936,23.042 L5.5236,24.352 C4.8206,24.873 3.9766,25.093 3.1476,24.967 L2.8526,26.945 C4.2106,27.146 5.5806,26.797 6.7126,25.959 L6.7126,25.959 Z M31.9996,14 L44.9996,14 L44.9996,12 L31.9996,12 L31.9996,14 Z M27.4996,21 L29.4996,21 L29.4996,4 C29.4996,1.795 27.7056,-1.13686838e-13 25.4996,-1.13686838e-13 C24.3276,-1.13686838e-13 23.2206,0.506 22.4626,1.386 L20.6286,4.047 L22.2776,5.179 L24.0106,2.654 C24.3876,2.238 24.9266,2 25.4996,2 C26.6206,2 27.4996,2.879 27.4996,4 L27.4996,7 L19.9996,7 L19.9996,9 L27.4996,9 L27.4996,12 L19.9996,12 L19.9996,14 L27.4996,14 L27.4996,17 L19.9996,17 L19.9996,19 L27.4996,19 L27.4996,21 Z M15.4996,21 L17.4996,21 L17.4996,4 C17.4996,1.795 15.7056,-1.13686838e-13 13.4996,-1.13686838e-13 C12.3276,-1.13686838e-13 11.2206,0.506 10.4626,1.386 L8.2026,4.667 C7.7426,5.337 7.4996,6.12 7.4996,6.932 L7.4996,10 L9.4996,10 L9.4996,6.932 C9.4996,6.526 9.6206,6.134 9.8516,5.799 L12.0106,2.654 C12.3876,2.238 12.9266,2 13.4996,2 C14.6206,2 15.4996,2.879 15.4996,4 L15.4996,12 L3.4996,12 L3.4996,14 L15.4996,14 L15.4996,21 Z" id="Fill-14"></path>
                    </g>
                </g>
            </g>
        </g>
    </g>
</svg>