<?xml version="1.0" encoding="UTF-8"?>
<svg width="48px" height="44px" viewBox="0 0 48 44" version="1.1" xmlns="http://www.w3.org/2000/svg" xmlns:xlink="http://www.w3.org/1999/xlink">
    <title>Fill 20</title>
    <g id="Page-1" stroke="none" stroke-width="1" fill="none" fill-rule="evenodd">
        <g id="02-Quienes-somos-Copy" transform="translate(-941, -2810)" fill="#515050">
            <g id="Group-19" transform="translate(315, 1894)">
                <g id="Group-4" transform="translate(626, 856.9776)">
                    <g id="Group-14" transform="translate(0, 10)">
                        <g id="Group-22" transform="translate(0, 49.619)">
                            <path d="M18.9756,13.896 L19.0896,15.893 C20.6976,15.801 22.3496,15.754 23.9996,15.754 C37.4296,15.754 45.9996,18.715 45.9996,20.754 C45.9996,21.311 45.1246,22.236 42.6676,23.16 L43.3716,25.032 C44.4336,24.633 45.3016,24.197 45.9996,23.731 L45.9996,35.754 C45.9996,37.792 37.4296,40.754 23.9996,40.754 C10.5706,40.754 1.9996,37.792 1.9996,35.754 L1.9996,23.735 C5.9136,26.383 14.9976,27.754 23.9996,27.754 C25.4256,27.754 26.3846,27.75 27.6776,27.69 L28.6316,27.646 L28.6306,25.794 C28.6376,25.53 28.7366,24.658 29.7416,24.539 C29.7416,24.539 35.1866,23.908 38.0986,23.563 C38.3416,23.532 38.5646,23.595 38.7226,23.735 C38.8806,23.876 38.9676,24.088 38.9676,24.333 L38.9676,31.445 L31.9926,32.273 L31.9926,26.399 L29.9926,26.399 L29.9926,34.525 L40.9676,33.221 L40.9676,24.333 C40.9676,23.509 40.6426,22.765 40.0506,22.24 C39.4586,21.714 38.6766,21.48 37.8626,21.576 C34.9536,21.921 29.5116,22.552 29.5086,22.552 C27.2726,22.818 26.6526,24.713 26.6316,25.728 C25.7986,25.751 25.0216,25.754 23.9996,25.754 C10.5706,25.754 1.9996,22.792 1.9996,20.754 C1.9996,20.159 3.0976,18.914 6.9996,17.757 L6.9996,21.754 L8.9996,21.754 L8.9996,10.754 C8.9996,8.548 7.2056,6.754 4.9996,6.754 C3.8286,6.754 2.7216,7.259 1.9626,8.14 L3.4786,9.444 C3.8566,9.005 4.4116,8.754 4.9996,8.754 C6.1216,8.754 6.9996,9.632 6.9996,10.754 L6.9996,15.676 C2.3566,16.956 -0.0004,18.662 -0.0004,20.754 L-0.0004,35.754 C-0.0004,40.35 12.0736,42.754 23.9996,42.754 C35.9266,42.754 47.9996,40.35 47.9996,35.754 L47.9996,20.754 C47.9996,15.507 32.2396,13.139 18.9756,13.896 M12.9996,8.754 C14.1216,8.754 14.9996,9.632 14.9996,10.754 L14.9996,13.754 L10.9996,13.754 L10.9996,15.754 L14.9996,15.754 L14.9996,18.754 L10.9996,18.754 L10.9996,20.754 L14.9996,20.754 L14.9996,21.754 L16.9996,21.754 L16.9996,10.754 C16.9996,8.548 15.2056,6.754 12.9996,6.754 C11.8286,6.754 10.7216,7.259 9.9626,8.14 L11.4786,9.444 C11.8566,9.005 12.4116,8.754 12.9996,8.754 M33.8986,10.062 L35.3426,11.446 C38.3006,8.359 36.5796,6.421 35.5506,5.264 C34.9666,4.606 34.6146,4.174 34.6436,3.723 C34.6686,3.339 34.9716,2.644 36.2766,1.508 L34.9646,-2.84217094e-14 C33.4576,1.311 32.7216,2.453 32.6476,3.594 C32.5626,4.911 33.3906,5.843 34.0556,6.592 C35.1016,7.77 35.5796,8.308 33.8986,10.062 M27.8986,10.062 L29.3426,11.446 C32.3006,8.359 30.5796,6.421 29.5506,5.264 C28.9666,4.606 28.6146,4.174 28.6436,3.723 C28.6686,3.339 28.9716,2.644 30.2766,1.508 L28.9646,-2.84217094e-14 C27.4576,1.311 26.7216,2.453 26.6476,3.594 C26.5626,4.911 27.3906,5.843 28.0556,6.592 C29.1016,7.77 29.5796,8.308 27.8986,10.062 M21.8986,10.062 L23.3426,11.446 C26.3006,8.359 24.5796,6.421 23.5506,5.264 C22.9666,4.606 22.6146,4.174 22.6436,3.723 C22.6686,3.339 22.9716,2.644 24.2766,1.508 L22.9646,-2.84217094e-14 C21.4576,1.311 20.7216,2.453 20.6476,3.594 C20.5626,4.911 21.3906,5.843 22.0556,6.592 C23.1016,7.77 23.5796,8.308 21.8986,10.062" id="Fill-20"></path>
                        </g>
                    </g>
                </g>
            </g>
        </g>
    </g>
</svg>