<?xml version="1.0" encoding="UTF-8"?>
<svg width="31px" height="50px" viewBox="0 0 31 50" version="1.1" xmlns="http://www.w3.org/2000/svg" xmlns:xlink="http://www.w3.org/1999/xlink">
    <title>Group 7</title>
    <defs>
        <polygon id="path-1" points="-3.55271368e-15 0 29.996382 0 29.996382 48.6122 -3.55271368e-15 48.6122"></polygon>
    </defs>
    <g id="Page-1" stroke="none" stroke-width="1" fill="none" fill-rule="evenodd">
        <g id="02-Quienes-somos-Copy" transform="translate(-350, -2750)">
            <g id="Group-19" transform="translate(315, 1894)">
                <g id="Group-18" transform="translate(29, 856.9776)">
                    <g id="Group-13" transform="translate(0, -0)">
                        <g id="Group-7" transform="translate(6.1651, -0)">
                            <mask id="mask-2" fill="white">
                                <use xlink:href="#path-1"></use>
                            </mask>
                            <g id="Clip-6"></g>
                            <path d="M27.661691,46.1142 C27.596691,46.3072 27.461691,46.4592 27.283691,46.5422 C27.094691,46.6302 26.874691,46.6332 26.668691,46.5512 L19.916691,43.9032 L19.185691,45.7652 L25.938691,48.4142 C26.275691,48.5462 26.624691,48.6122 26.972691,48.6122 C27.367691,48.6122 27.758691,48.5262 28.125691,48.3562 C28.804691,48.0412 29.311691,47.4732 29.555691,46.7582 L29.847691,45.8982 C30.339691,44.4502 29.570691,42.8142 28.131691,42.2492 L26.114691,41.4592 L25.385691,43.3212 L27.401691,44.1122 C27.851691,44.2882 28.104691,44.8112 27.953691,45.2542 L27.661691,46.1142 Z M0.441690984,34.4622 L0.148690984,35.3232 C-0.343309016,36.7712 0.426690984,38.4072 1.86469098,38.9712 L4.11369098,39.8532 L4.84469098,37.9912 L2.59569098,37.1092 C2.14469098,36.9332 1.89169098,36.4092 2.04169098,35.9672 L2.33469098,35.1062 C2.40069098,34.9132 2.53469098,34.7612 2.71269098,34.6792 C2.90069098,34.5902 3.11969098,34.5872 3.32769098,34.6702 L10.092691,37.3232 L10.822691,35.4612 L4.05769098,32.8072 C3.33669098,32.5252 2.55969098,32.5452 1.87069098,32.8652 C1.19169098,33.1802 0.683690984,33.7472 0.441690984,34.4622 L0.441690984,34.4622 Z M18.810691,30.8052 C19.956691,29.0222 20.304691,26.6252 19.718691,24.5522 C19.189691,22.6762 17.974691,21.2332 16.207691,20.3802 L14.204691,19.4122 L14.809691,21.5522 C15.431691,23.7482 14.763691,25.7142 13.787691,26.2762 C12.879691,26.8012 11.849691,25.9572 11.317691,25.4072 L10.514691,24.5792 L9.80769098,25.4912 C9.01669098,26.5152 8.16369098,29.0542 10.602691,31.3402 L11.969691,29.8812 C11.119691,29.0842 10.951691,28.3232 11.007691,27.7472 C12.767691,28.9022 14.190691,28.3532 14.786691,28.0092 C16.140691,27.2282 16.956691,25.5102 17.038691,23.5562 C17.435691,24.0832 17.663691,24.6322 17.793691,25.0952 C18.222691,26.6112 17.960691,28.4282 17.128691,29.7252 L18.810691,30.8052 Z M6.83269098,13.5612 L4.71469098,15.3962 C2.55469098,17.2672 1.31869098,20.1702 1.40769098,23.1612 C1.50369098,26.3832 3.06069098,29.3102 5.79269098,31.4042 L7.00969098,29.8172 C4.76469098,28.0952 3.48469098,25.7102 3.40769098,23.1012 C3.35969098,21.5062 3.77769098,19.9462 4.56669098,18.6442 C4.86769098,19.5062 5.41269098,20.2382 6.17269098,20.7602 C7.50869098,21.6772 9.26869098,21.7362 10.657691,20.9062 C12.599691,19.7462 13.506691,17.1582 13.143691,13.8072 C12.524691,8.0902 14.627691,5.1442 16.327691,3.7272 C15.389691,9.3132 19.164691,13.2042 21.538691,15.6522 C21.928691,16.0532 22.292691,16.4282 22.607691,16.7792 C24.281691,18.6422 25.124691,20.9202 24.982691,23.1912 C24.846691,25.3552 23.840691,27.3542 22.148691,28.8192 L23.458691,30.3302 C25.558691,28.5112 26.808691,26.0202 26.978691,23.3172 C27.154691,20.5052 26.131691,17.7092 24.096691,15.4432 C23.765691,15.0742 23.383691,14.6802 22.974691,14.2592 C20.293691,11.4962 16.622691,7.7132 18.890691,1.9782 L19.673691,-0.0008 L17.650691,0.6602 C17.569691,0.6862 15.643691,1.3322 13.893691,3.3362 C12.312691,5.1462 10.554691,8.4702 11.155691,14.0222 C11.430691,16.5642 10.874691,18.4472 9.63169098,19.1892 C8.90169098,19.6252 8.01069098,19.5962 7.30569098,19.1112 C6.49169098,18.5522 6.14469098,17.5352 6.35469098,16.3222 L6.83269098,13.5612 Z M2.59569098,44.1122 L26.668691,34.6702 C26.768691,34.6302 26.870691,34.6112 26.971691,34.6112 C27.079691,34.6112 27.185691,34.6342 27.283691,34.6782 C27.461691,34.7612 27.596691,34.9132 27.661691,35.1062 L27.953691,35.9662 C28.104691,36.4092 27.850691,36.9332 27.401691,37.1092 L3.32869098,46.5512 C3.11969098,46.6322 2.90169098,46.6292 2.71269098,46.5422 C2.53469098,46.4592 2.40069098,46.3072 2.33469098,46.1142 L2.04269098,45.2542 C1.89169098,44.8112 2.14469098,44.2882 2.59569098,44.1122 L2.59569098,44.1122 Z M0.148690984,45.8982 L0.441690984,46.7582 C0.683690984,47.4732 1.19169098,48.0412 1.86969098,48.3562 C2.23669098,48.5262 2.62869098,48.6122 3.02369098,48.6122 C3.37069098,48.6122 3.72069098,48.5462 4.05769098,48.4142 L28.131691,38.9712 C29.569691,38.4072 30.339691,36.7712 29.847691,35.3232 L29.555691,34.4622 C29.311691,33.7472 28.803691,33.1792 28.124691,32.8642 C27.435691,32.5462 26.659691,32.5252 25.937691,32.8072 L1.86469098,42.2492 C0.425690984,42.8142 -0.343309016,44.4512 0.148690984,45.8982 L0.148690984,45.8982 Z" id="Fill-5" fill="#515050" mask="url(#mask-2)"></path>
                        </g>
                    </g>
                </g>
            </g>
        </g>
    </g>
</svg>