<?xml version="1.0" encoding="UTF-8"?>
<svg width="46px" height="45px" viewBox="0 0 46 45" version="1.1" xmlns="http://www.w3.org/2000/svg" xmlns:xlink="http://www.w3.org/1999/xlink">
    <title>Fill 1</title>
    <g id="Page-1" stroke="none" stroke-width="1" fill="none" fill-rule="evenodd">
        <g id="02-Quienes-somos-Copy" transform="translate(-641, -2861)" fill="#515050">
            <g id="Group-19" transform="translate(315, 1894)">
                <g id="Group-10" transform="translate(325, 856.9776)">
                    <g id="Group-11" transform="translate(0, 7)">
                        <path d="M32.6103,140.4832 L27.9133,140.4832 L26.5133,137.4832 L28.6103,137.4832 C32.6103,137.4832 32.6103,138.8342 32.6103,139.4832 L32.6103,140.4832 Z M29.6103,110.4832 L29.6103,117.0692 L26.3173,113.7762 L24.9033,115.1902 L29.6103,119.8972 L29.6103,134.4832 L31.6103,134.4832 L31.6103,123.8972 L36.3173,119.1902 L34.9033,117.7762 L31.6103,121.0692 L31.6103,110.4832 L29.6103,110.4832 Z M38.6733,110.4832 C38.1793,106.5422 34.8083,103.4832 30.7353,103.4832 C26.6053,103.4832 23.1963,106.6292 22.7803,110.6992 C19.2103,111.5342 16.6103,114.7432 16.6103,118.4832 C16.6103,122.8942 20.1993,126.4832 24.6103,126.4832 L27.6103,126.4832 L27.6103,124.4832 L24.6103,124.4832 C21.3013,124.4832 18.6103,121.7922 18.6103,118.4832 C18.6103,115.4652 20.8683,112.9082 23.8613,112.5352 L24.7353,112.3662 L24.7353,111.4832 C24.7353,108.1742 27.4263,105.4832 30.7353,105.4832 C34.0443,105.4832 36.7353,108.1742 36.7363,111.4412 L36.7323,112.6772 L37.8573,112.5362 C38.1043,112.5052 38.3543,112.4832 38.6103,112.4832 C41.9193,112.4832 44.6103,115.1742 44.6103,118.4832 C44.6103,121.7922 41.9193,124.4832 38.6103,124.4832 L33.6103,124.4832 L33.6103,126.4832 L38.6103,126.4832 C43.0213,126.4832 46.6103,122.8942 46.6103,118.4832 C46.6103,114.0932 43.0553,110.5172 38.6733,110.4832 L38.6733,110.4832 Z M15.6103,140.4832 C14.2263,140.4832 13.8283,139.9102 13.3663,139.2472 L9.0723,132.4832 L11.9863,132.4832 C13.4743,134.8992 14.6233,136.7682 14.7133,136.9242 L14.9873,137.4832 L24.3073,137.4832 L25.7073,140.4832 L15.6103,140.4832 Z M7.8023,130.4832 L3.9843,124.4692 C3.6683,123.9952 3.0053,122.8342 3.6863,122.2992 C4.1393,121.9432 4.4223,121.8832 4.5763,121.8832 C4.6303,121.8832 4.6683,121.8902 4.6933,121.8952 C5.6053,122.0632 6.8363,124.1132 7.2463,124.7972 C8.3093,126.5192 9.5713,128.5652 10.7533,130.4832 L7.8023,130.4832 Z M21.9733,132.4832 L23.3733,135.4832 L16.1733,135.4832 C15.8273,134.9142 15.2103,133.9082 14.3343,132.4832 L21.9733,132.4832 Z M28.6103,135.4832 L25.5803,135.4832 L24.1803,132.4832 L27.6103,132.4832 L27.6103,130.4832 L23.2473,130.4832 L22.6103,130.4832 L13.1033,130.4832 C11.9893,128.6752 10.6083,126.4362 8.9553,123.7572 C7.4633,121.2732 6.3333,120.1632 5.0553,119.9282 C4.1883,119.7682 3.3383,120.0302 2.4513,120.7272 C1.3823,121.5662 0.7873,123.2812 2.3083,125.5602 L6.6103,132.3392 L6.6103,147.4832 L8.6103,147.4832 L8.6103,135.4912 L11.6523,140.2862 L11.7243,140.3892 C12.2693,141.1722 13.1813,142.4832 15.6103,142.4832 L26.6403,142.4832 L28.6103,146.7052 L28.6103,147.4832 L30.6103,147.4832 L30.6103,146.2612 L28.8473,142.4832 L34.6103,142.4832 L34.6103,139.4832 C34.6103,136.8292 32.5913,135.4832 28.6103,135.4832 L28.6103,135.4832 Z" id="Fill-1"></path>
                    </g>
                </g>
            </g>
        </g>
    </g>
</svg>