<?xml version="1.0" encoding="UTF-8"?>
<svg width="40px" height="36px" viewBox="0 0 40 36" version="1.1" xmlns="http://www.w3.org/2000/svg" xmlns:xlink="http://www.w3.org/1999/xlink">
    <title>Fill 12</title>
    <g id="Page-1" stroke="none" stroke-width="1" fill="none" fill-rule="evenodd">
        <g id="02-Quienes-somos-Copy" transform="translate(-644, -2757)" fill="#515050">
            <g id="Group-19" transform="translate(315, 1894)">
                <g id="Group-10" transform="translate(325, 856.9776)">
                    <g id="Group-11" transform="translate(0, 7)">
                        <path d="M30.6826,15.712 C30.5036,16.023 30.1736,16.093 29.7406,15.94 C29.3686,15.787 28.8846,15.547 28.3836,15.299 C27.7846,15.003 27.1656,14.697 26.6456,14.488 C26.5516,14.451 26.4856,14.413 26.3686,14.21 L24.7276,11.358 L22.9946,12.354 L23.3726,13.012 L19.7686,16.629 L20.5526,17.333 C20.6466,17.417 22.8696,19.412 23.8336,20.196 C24.6846,20.889 24.9956,21.353 25.1086,22.106 C25.2716,23.196 26.0036,27.994 26.0156,28.061 C26.1586,28.702 25.7896,28.949 25.4556,29.044 C25.0916,29.15 24.4056,29.121 24.1426,28.367 C23.5406,26.595 22.2766,22.715 22.2756,22.714 L22.1736,22.399 L21.9046,22.208 C21.9046,22.208 19.0786,20.201 16.5566,18.437 C15.8946,17.974 15.4826,17.353 15.3936,16.689 C15.2976,15.957 15.5826,15.169 16.2186,14.408 C17.4496,12.939 18.7836,11.579 19.9596,10.379 C20.5496,9.777 21.0956,9.221 21.5646,8.716 C22.3886,7.829 23.1436,7.573 23.8456,7.573 C24.1486,7.573 24.4426,7.621 24.7276,7.686 C25.5566,7.875 26.4106,8.88 27.1326,10.513 C27.5076,11.362 28.0946,12.616 28.0946,12.616 L28.1886,12.817 L28.3586,12.959 C28.3596,12.96 29.4126,13.841 30.5666,14.822 C30.8406,15.056 30.8306,15.455 30.6826,15.712 L30.6826,15.712 Z M25.9996,4.333 C25.9996,3.024 26.8786,2 27.9996,2 C29.1216,2 29.9996,3.024 29.9996,4.333 L29.9996,4.667 C29.9996,5.976 29.1216,7 27.9996,7 C26.8786,7 25.9996,5.976 25.9996,4.667 L25.9996,4.333 Z M38.4896,21.159 L38.0656,23.114 C40.3456,23.608 41.9996,25.663 41.9996,28 C41.9996,30.757 39.7566,33 36.9996,33 C34.2436,33 31.9996,30.757 31.9996,28 C31.9996,26.279 32.8706,24.733 34.2696,23.823 L36.0706,28.369 L37.9296,27.631 L34.7726,19.681 L33.8196,16.209 L32.7296,15.868 C32.9206,14.926 32.6126,13.937 31.8626,13.299 C30.9806,12.549 30.1576,11.858 29.8126,11.568 C29.6346,11.186 29.2396,10.333 28.9616,9.705 C28.8426,9.435 28.7186,9.181 28.5926,8.937 C30.5416,8.633 31.9996,6.876 31.9996,4.667 L31.9996,4.333 C31.9996,1.903 30.2436,4.54747351e-13 27.9996,4.54747351e-13 C25.7566,4.54747351e-13 23.9996,1.903 23.9996,4.333 L23.9996,4.667 C23.9996,4.987 24.0336,5.295 24.0916,5.593 C22.5706,5.518 21.2796,6.084 20.0996,7.355 C19.6416,7.848 19.1076,8.392 18.5316,8.979 C17.3296,10.205 15.9666,11.595 14.6856,13.125 C13.6796,14.326 13.2396,15.65 13.4116,16.95 C13.5116,17.702 13.8376,18.398 14.3176,19.014 L10.1026,27.558 L10.9996,28 L10.9996,29 L15.8986,29 C15.4346,31.279 13.4146,33 10.9996,33 C8.2436,33 5.9996,30.757 5.9996,28 C5.9996,25.56 7.7426,23.487 10.1426,23.073 L9.8036,21.103 C6.4406,21.683 3.9996,24.583 3.9996,28 C3.9996,31.859 7.1406,35 10.9996,35 C14.5196,35 17.4326,32.386 17.9196,29 L19.3436,29 L19.3436,27 L12.6086,27 L14.0586,24.06 C14.5546,24.445 14.9826,24.912 15.3076,25.459 L17.0276,24.44 C16.5046,23.556 15.7996,22.805 14.9616,22.229 L15.8666,20.395 C17.7866,21.741 19.7706,23.146 20.4766,23.648 C20.7906,24.609 21.7486,27.537 22.2516,29.017 C22.7476,30.445 23.9856,31.084 25.1556,31.084 C25.4466,31.084 25.7326,31.045 26.0026,30.968 C27.5026,30.542 28.3106,29.168 27.9806,27.693 C27.9806,27.693 27.2496,22.899 27.0856,21.809 C26.8666,20.347 26.1316,19.486 25.0956,18.644 C24.5176,18.175 23.4226,17.211 22.6746,16.546 L24.4056,14.809 L24.6346,15.207 C24.8366,15.559 25.1886,16.06 25.9026,16.346 C26.3496,16.524 26.9326,16.813 27.4966,17.092 C28.0446,17.363 28.5766,17.624 29.0246,17.807 C29.9606,18.143 30.8656,18.047 31.5656,17.599 L32.1806,17.791 L32.5126,19 L28.9996,19 L28.9996,21 L33.1506,21 L33.5196,21.929 C31.3556,23.164 29.9996,25.45 29.9996,28 C29.9996,31.859 33.1406,35 36.9996,35 C40.8596,35 43.9996,31.859 43.9996,28 C43.9996,24.729 41.6826,21.852 38.4896,21.159 L38.4896,21.159 Z" id="Fill-12"></path>
                    </g>
                </g>
            </g>
        </g>
    </g>
</svg>