<?xml version="1.0" encoding="UTF-8"?>
<svg width="48px" height="40px" viewBox="0 0 48 40" version="1.1" xmlns="http://www.w3.org/2000/svg" xmlns:xlink="http://www.w3.org/1999/xlink">
    <title>Fill 16</title>
    <g id="Page-1" stroke="none" stroke-width="1" fill="none" fill-rule="evenodd">
        <g id="02-Quienes-somos-Copy" transform="translate(-941, -2866)" fill="#515050">
            <g id="Group-19" transform="translate(315, 1894)">
                <g id="Group-4" transform="translate(626, 856.9776)">
                    <g id="Group-14" transform="translate(0, 10)">
                        <path d="M23.3999,129.9375 C19.6709,129.9375 16.0949,130.1525 12.7739,130.5765 L13.0259,132.5605 C16.2649,132.1475 19.7549,131.9375 23.3999,131.9375 C37.1349,131.9375 45.8999,134.8985 45.8999,136.9375 C45.8999,138.9765 37.1349,141.9375 23.3999,141.9375 C20.8289,141.9375 18.3049,141.8315 15.8969,141.6225 L15.7239,143.6145 C18.1889,143.8295 20.7719,143.9375 23.3999,143.9375 C35.5749,143.9375 47.8999,141.5335 47.8999,136.9375 C47.8999,132.3415 35.5749,129.9375 23.3999,129.9375 L23.3999,129.9375 Z M6.8999,127.1345 L1.0309,135.9375 L3.1339,135.9375 L0.1339,140.9375 L1.8999,140.9375 L0.0999,143.3375 L1.6999,144.5375 L5.8999,138.9375 L3.6659,138.9375 L6.6659,133.9375 L4.7689,133.9375 L6.8999,130.7405 L9.0309,133.9375 L7.1339,133.9375 L10.1339,138.9375 L7.8999,138.9375 L12.0999,144.5375 L13.6999,143.3375 L11.8999,140.9375 L13.6659,140.9375 L10.6659,135.9375 L12.7689,135.9375 L6.8999,127.1345 Z M28.8999,110.1345 L23.0309,118.9375 L25.1339,118.9375 L22.1339,123.9375 L24.1339,123.9375 L22.5389,126.5955 L24.2539,127.6245 L27.6659,121.9375 L25.6659,121.9375 L28.6659,116.9375 L26.7689,116.9375 L28.8999,113.7405 L31.0309,116.9375 L29.1339,116.9375 L32.2539,122.1385 L33.9689,121.1095 L32.6659,118.9375 L34.7689,118.9375 L28.8999,110.1345 Z M37.1339,119.9375 L34.1339,124.9375 L36.1339,124.9375 L34.3019,127.9915 L36.0169,129.0205 L39.6659,122.9375 L37.6659,122.9375 L40.6659,117.9375 L38.7689,117.9375 L40.8999,114.7405 L43.0309,117.9375 L41.1339,117.9375 L44.1339,122.9375 L42.1339,122.9375 L46.0429,129.4525 L47.7569,128.4225 L45.6659,124.9375 L47.6659,124.9375 L44.6659,119.9375 L46.7689,119.9375 L40.8999,111.1345 L35.0309,119.9375 L37.1339,119.9375 Z M36.0679,112.4925 L37.7319,111.3825 L34.8999,107.1345 L32.0679,111.3825 L33.7319,112.4925 L34.8999,110.7405 L36.0679,112.4925 Z M18.3249,108.9275 L16.9109,107.5135 L15.1429,109.2815 L16.5569,110.6955 L18.3249,108.9275 Z M17.8999,115.9375 L20.3999,115.9375 L20.3999,113.9375 L17.8999,113.9375 L17.8999,115.9375 Z M18.3249,120.9485 L16.5569,119.1805 L15.1429,120.5945 L16.9109,122.3625 L18.3249,120.9485 Z M9.8999,124.4385 L11.8999,124.4385 L11.8999,121.9385 L9.8999,121.9385 L9.8999,124.4385 Z M4.8889,122.3625 L6.6569,120.5945 L5.2429,119.1805 L3.4749,120.9485 L4.8889,122.3625 Z M1.3999,115.9375 L3.8999,115.9375 L3.8999,113.9375 L1.3999,113.9375 L1.3999,115.9375 Z M4.8889,107.5135 L3.4749,108.9275 L5.2429,110.6955 L6.6569,109.2815 L4.8889,107.5135 Z M9.8999,107.9375 L11.8999,107.9375 L11.8999,105.4375 L9.8999,105.4375 L9.8999,107.9375 Z M10.8999,117.9375 C9.2459,117.9375 7.8999,116.5915 7.8999,114.9375 C7.8999,113.2845 9.2459,111.9385 10.8999,111.9385 C12.5539,111.9385 13.8999,113.2845 13.8999,114.9375 C13.8999,116.5915 12.5539,117.9375 10.8999,117.9375 L10.8999,117.9375 Z M15.8999,114.9375 C15.8999,112.1805 13.6569,109.9385 10.8999,109.9385 C8.1429,109.9385 5.8999,112.1805 5.8999,114.9375 C5.8999,117.6945 8.1429,119.9375 10.8999,119.9375 C13.6569,119.9375 15.8999,117.6945 15.8999,114.9375 L15.8999,114.9375 Z" id="Fill-16"></path>
                    </g>
                </g>
            </g>
        </g>
    </g>
</svg>