<?xml version="1.0" encoding="UTF-8"?>
<svg width="43px" height="26px" viewBox="0 0 43 26" version="1.1" xmlns="http://www.w3.org/2000/svg" xmlns:xlink="http://www.w3.org/1999/xlink">
    <title>Fill 18</title>
    <g id="Page-1" stroke="none" stroke-width="1" fill="none" fill-rule="evenodd">
        <g id="02-Quienes-somos-Copy" transform="translate(-344, -2816)" fill="#515050">
            <g id="Group-19" transform="translate(315, 1894)">
                <g id="Group-18" transform="translate(29, 856.9776)">
                    <g id="Group-13" transform="translate(0, -0)">
                        <path d="M2,71.4564 C2.16,71.3274 2.67,71.0874 3.52,71.0874 C4.37,71.0874 4.88,71.3274 5.041,71.4564 L5.041,85.1384 C4.881,85.2674 4.37,85.5074 3.52,85.5074 C2.67,85.5074 2.16,85.2674 2,85.1384 L2,71.4564 Z M7.041,85.2594 L7.041,68.5114 C7.041,68.2114 7.647,67.7584 8.561,67.7584 C9.475,67.7584 10.082,68.2114 10.082,68.5114 L10.082,88.0824 C10.082,88.3824 9.475,88.8354 8.561,88.8354 C7.647,88.8354 7.041,88.3824 7.041,88.0824 L7.041,85.2594 Z M12.082,79.5614 L30.245,79.5614 L30.245,77.0324 L12.082,77.0324 L12.082,79.5614 Z M32.245,81.5614 L32.245,68.5114 C32.245,68.2114 32.851,67.7584 33.765,67.7584 C34.679,67.7584 35.286,68.2114 35.286,68.5114 L35.286,88.0824 C35.286,88.3824 34.679,88.8354 33.765,88.8354 C32.851,88.8354 32.245,88.3824 32.245,88.0824 L32.245,81.5614 Z M37.286,71.4564 C37.446,71.3274 37.956,71.0874 38.806,71.0874 C39.656,71.0874 40.167,71.3274 40.327,71.4564 L40.327,85.1384 C40.167,85.2674 39.656,85.5074 38.806,85.5074 C37.956,85.5074 37.445,85.2674 37.286,85.1384 L37.286,71.4564 Z M3.52,87.5074 C4.074,87.5074 4.587,87.4374 5.041,87.3094 L5.041,88.0824 C5.041,89.6264 6.587,90.8354 8.561,90.8354 C10.535,90.8354 12.082,89.6264 12.082,88.0824 L12.082,81.5614 L30.245,81.5614 L30.245,88.0824 C30.245,89.6264 31.791,90.8354 33.765,90.8354 C35.739,90.8354 37.286,89.6264 37.286,88.0824 L37.286,87.3094 C37.739,87.4374 38.252,87.5074 38.806,87.5074 C40.846,87.5074 42.327,86.5614 42.327,85.2594 L42.327,71.3344 C42.327,70.0324 40.846,69.0874 38.806,69.0874 C38.252,69.0874 37.739,69.1574 37.286,69.2854 L37.286,68.5114 C37.286,66.9684 35.739,65.7584 33.765,65.7584 C31.791,65.7584 30.245,66.9684 30.245,68.5114 L30.245,75.0324 L12.082,75.0324 L12.082,68.5114 C12.082,66.9684 10.535,65.7584 8.561,65.7584 C6.587,65.7584 5.041,66.9684 5.041,68.5114 L5.041,69.2854 C4.587,69.1574 4.074,69.0874 3.52,69.0874 C1.48,69.0874 0,70.0324 0,71.3344 L0,85.2594 C0,86.5614 1.48,87.5074 3.52,87.5074 L3.52,87.5074 Z" id="Fill-18"></path>
                    </g>
                </g>
            </g>
        </g>
    </g>
</svg>