<?xml version="1.0" encoding="UTF-8"?>
<svg width="48px" height="33px" viewBox="0 0 48 33" version="1.1" xmlns="http://www.w3.org/2000/svg" xmlns:xlink="http://www.w3.org/1999/xlink">
    <title>Fill 3</title>
    <g id="Page-1" stroke="none" stroke-width="1" fill="none" fill-rule="evenodd">
        <g id="02-Quienes-somos-Copy" transform="translate(-640, -2813)" fill="#515050">
            <g id="Group-19" transform="translate(315, 1894)">
                <g id="Group-10" transform="translate(325, 856.9776)">
                    <g id="Group-11" transform="translate(0, 7)">
                        <path d="M15,75.4919 L4,75.4919 L4,73.4919 L14,73.4919 C14.551,73.4919 15,73.9409 15,74.4919 L15,75.4919 Z M14,71.4919 L4,71.4919 C3.918,71.4919 3.841,71.5069 3.762,71.5159 L2.717,67.2349 C2.241,65.3319 2,63.3739 2,61.4139 L2,57.4919 L0,57.4919 L0,61.4139 C0,63.5369 0.261,65.6589 0.776,67.7199 L2,72.6149 L2,73.4919 L2,75.4919 C2,76.1119 2.289,76.6599 2.734,77.0269 C1.587,80.1909 1,83.4989 1,86.8769 L1,87.4919 L3,87.4919 L3,86.8769 C3,83.6549 3.575,80.5019 4.694,77.4919 L12.306,77.4919 C13.425,80.5019 14,83.6549 14,86.8769 L14,87.4919 L16,87.4919 L16,86.8769 C16,83.6649 15.474,80.5149 14.436,77.4919 L15,77.4919 C16.103,77.4919 17,76.5949 17,75.4919 L17,74.4919 C17,72.8379 15.654,71.4919 14,71.4919 L14,71.4919 Z M24.819,60.4919 L23,60.4919 L23,61.4919 C23,61.6329 23.021,64.2659 24.111,66.4919 L20.598,66.4919 C19.39,63.9769 19.095,59.4849 19.022,57.4919 L24.984,57.4919 C24.965,58.2729 24.919,59.4029 24.819,60.4919 L24.819,60.4919 Z M30.932,62.4919 C30.811,63.5909 30.468,65.3429 29.541,66.4919 L26.459,66.4919 C25.532,65.3429 25.189,63.5909 25.068,62.4919 L30.932,62.4919 Z M25,68.4919 L39,68.4919 L39,66.4919 L31.889,66.4919 C32.979,64.2659 33,61.6329 33,61.4919 L33,60.4919 L26.828,60.4919 C26.996,58.5459 27,56.5899 27,56.4919 L27,55.4919 L17,55.4919 L17,56.4919 C17,56.7749 17.019,62.6559 18.436,66.4919 L9,66.4919 L9,68.4919 L23,68.4919 L23,85.4919 L19,85.4919 L19,87.4919 L29,87.4919 L29,85.4919 L25,85.4919 L25,68.4919 Z M33,75.4919 L33,74.4919 C33,73.9409 33.449,73.4919 34,73.4919 L44,73.4919 L44.001,75.4919 L33,75.4919 Z M46,61.4139 C46,63.3759 45.759,65.3339 45.283,67.2349 L44.214,71.5139 C44.143,71.5059 44.073,71.4919 44,71.4919 L34,71.4919 C32.346,71.4919 31,72.8379 31,74.4919 L31,75.4919 C31,76.5949 31.897,77.4919 33,77.4919 L33.564,77.4919 C32.526,80.5149 32,83.6649 32,86.8769 L32,87.4919 L34,87.4919 L34,86.8769 C34,83.6549 34.575,80.5019 35.694,77.4919 L43.306,77.4919 C44.425,80.5019 45,83.6549 45,86.8769 L45,87.4919 L47,87.4919 L47,86.8769 C47,83.4989 46.413,80.1909 45.266,77.0269 C45.711,76.6599 46,76.1119 46,75.4919 L46,73.4919 L46,72.6149 L47.224,67.7199 C47.739,65.6599 48,63.5389 48,61.4139 L48,57.4919 L46,57.4919 L46,61.4139 Z" id="Fill-3"></path>
                    </g>
                </g>
            </g>
        </g>
    </g>
</svg>