<?xml version="1.0" encoding="UTF-8"?>
<svg width="29px" height="44px" viewBox="0 0 29 44" version="1.1" xmlns="http://www.w3.org/2000/svg" xmlns:xlink="http://www.w3.org/1999/xlink">
    <title>Fill 8</title>
    <g id="Page-1" stroke="none" stroke-width="1" fill="none" fill-rule="evenodd">
        <g id="02-Quienes-somos-Copy" transform="translate(-351, -2861)" fill="#515050">
            <g id="Group-19" transform="translate(315, 1894)">
                <g id="Group-18" transform="translate(29, 856.9776)">
                    <g id="Group-13" transform="translate(0, -0)">
                        <path d="M9.3481,133.5794 L12.8451,121.5124 C12.9551,121.1264 13.2091,120.8084 13.5601,120.6144 C13.9101,120.4204 14.3171,120.3734 14.7011,120.4844 L16.2581,120.9324 C17.0531,121.1614 17.5131,121.9934 17.2851,122.7884 L16.9321,124.0164 L14.2651,133.2934 L14.2651,133.2934 L13.7891,134.8534 C13.5601,135.6484 12.7261,136.1094 11.9321,135.8814 L10.3761,135.4334 C9.9911,135.3224 9.6721,135.0684 9.4781,134.7184 C9.2841,134.3674 9.2381,133.9624 9.3481,133.5794 L9.3481,133.5794 Z M9.8231,137.3554 L11.3801,137.8034 C11.7021,137.8954 12.0261,137.9394 12.3461,137.9394 C13.1051,137.9394 13.8341,137.6904 14.4291,137.2524 C15.1241,139.0924 16.5611,140.3364 17.4191,141.0784 L22.0891,145.0874 L23.0451,153.6954 L25.0331,153.4754 L23.9891,144.0834 L18.7241,139.5634 C17.1431,138.1964 15.5141,136.5134 16.1821,133.8614 L18.8351,124.6284 C19.1871,123.6404 20.1481,123.3724 20.6891,123.3014 C21.8231,123.1504 23.0931,123.5704 23.5691,124.2584 C25.0871,126.4544 27.2061,129.6234 27.2071,129.6254 L27.4601,130.0034 L31.9411,130.5804 C32.3091,130.6164 32.6491,130.7944 32.8501,131.0564 C33.0091,131.2614 33.0671,131.4984 33.0251,131.7604 C32.9491,132.2234 32.4691,132.5854 31.9321,132.5854 L26.4641,132.5854 C26.1711,132.5854 25.8921,132.4564 25.7021,132.2324 L22.4341,128.3834 L20.9101,129.6774 L22.6011,131.6694 L21.0691,136.3774 L26.4711,142.5784 C26.8271,143.1114 27.0041,143.7534 26.9731,144.3934 L26.9701,144.4504 L27.5411,153.6474 L29.5371,153.5234 L28.9731,144.4344 C29.0131,143.3594 28.7001,142.2824 28.0871,141.3974 L23.3221,135.9184 L24.1211,133.4604 L24.1781,133.5274 C24.7501,134.1994 25.5831,134.5854 26.4641,134.5854 L31.7811,134.5854 L30.5411,153.5194 L32.5371,153.6504 L33.8271,133.9504 C34.4351,133.4984 34.8741,132.8434 34.9981,132.0814 C35.1301,131.2754 34.9301,130.4784 34.4351,129.8364 C34.3371,129.7084 34.2191,129.5984 34.1021,129.4874 L34.3441,125.5194 L32.3481,125.3974 L32.1531,128.5914 L28.6171,128.1364 C28.0081,127.2274 26.4221,124.8674 25.2131,123.1204 C24.3051,121.8064 22.3371,121.0644 20.4271,121.3184 C20.0041,121.3744 19.6091,121.4764 19.2441,121.6214 C18.9741,120.4114 18.0841,119.3764 16.8101,119.0104 L15.2531,118.5624 C13.3981,118.0284 11.4551,119.1044 10.9231,120.9574 L7.4271,133.0244 C7.1681,133.9234 7.2751,134.8684 7.7281,135.6864 C8.1811,136.5044 8.9251,137.0974 9.8231,137.3554 L9.8231,137.3554 Z M13.4101,140.6314 L12.6171,144.2574 L8.7191,153.1844 L10.5521,153.9854 L14.4901,144.9674 L15.3641,141.0584 L13.4101,140.6314 Z M18.6031,147.1974 L19.4181,145.0614 L17.5491,144.3494 L16.7551,146.4334 L13.7491,153.1784 L15.5771,153.9924 L18.6031,147.1974 Z M21.0391,115.1564 C21.0391,113.7384 22.1611,112.5854 23.5391,112.5854 C24.9171,112.5854 26.0391,113.7384 26.0391,115.1564 L26.0391,116.0144 C26.0391,117.4324 24.9171,118.5854 23.5391,118.5854 C22.1611,118.5854 21.0391,117.4324 21.0391,116.0144 L21.0391,115.1564 Z M23.5391,120.5854 C26.0201,120.5854 28.0391,118.5354 28.0391,116.0144 L28.0391,115.1564 C28.0391,112.6354 26.0201,110.5854 23.5391,110.5854 C21.0571,110.5854 19.0391,112.6354 19.0391,115.1564 L19.0391,116.0144 C19.0391,118.5354 21.0571,120.5854 23.5391,120.5854 L23.5391,120.5854 Z" id="Fill-8"></path>
                    </g>
                </g>
            </g>
        </g>
    </g>
</svg>