<?xml version="1.0" encoding="UTF-8"?>
<svg width="159px" height="99px" viewBox="0 0 159 99" version="1.1" xmlns="http://www.w3.org/2000/svg" xmlns:xlink="http://www.w3.org/1999/xlink">
    <title>Fill 1</title>
    <g id="Page-1" stroke="none" stroke-width="1" fill="none" fill-rule="evenodd">
        <g id="02-Quienes-somos" transform="translate(-430, -2969)" fill="#FFFFFF">
            <path d="M478.181818,3043.85381 L487.818182,3043.85381 L487.818182,3019.70761 L478.181818,3019.70761 L478.181818,3043.85381 Z M434.818182,2997.97604 L434.818182,2981.0737 L469.957182,2981.0737 L453.093545,2997.97604 L434.818182,2997.97604 Z M487.818182,2997.97604 C487.818182,3000.63936 485.657227,3002.80528 483,3002.80528 C480.342773,3002.80528 478.181818,3000.63936 478.181818,2997.97604 C478.181818,2995.31271 480.342773,2993.1468 483,2993.1468 C485.657227,2993.1468 487.818182,2995.31271 487.818182,2997.97604 L487.818182,2997.97604 Z M473.363636,2997.97604 C473.363636,3003.30269 477.685545,3007.63451 483,3007.63451 C488.314455,3007.63451 492.636364,3003.30269 492.636364,2997.97604 C492.636364,2992.64939 488.314455,2988.31756 483,2988.31756 C477.685545,2988.31756 473.363636,2992.64939 473.363636,2997.97604 L473.363636,2997.97604 Z M553.085273,3040.582 C550.741227,3039.59442 548.238182,3039.02457 545.636364,3039.02457 C542.988773,3039.02457 540.468864,3039.57751 538.170591,3040.55061 L528.502909,3023.76659 C533.670409,3021.18294 539.481136,3019.70761 545.636364,3019.70761 C551.791591,3019.70761 557.602318,3021.18294 562.769818,3023.76659 L553.085273,3040.582 Z M526.513,3055.9269 L507.165591,3055.9269 C507.934091,3043.52059 514.583182,3032.69826 524.332773,3026.18604 L533.995636,3042.96523 C529.970045,3046.03662 527.173091,3050.65096 526.513,3055.9269 L526.513,3055.9269 Z M567.556682,3020.90526 C567.472364,3020.84007 567.414545,3020.75073 567.320591,3020.69519 C567.2435,3020.65173 567.159182,3020.64931 567.082091,3020.61551 C560.748591,3016.98392 553.439409,3014.87837 545.636364,3014.87837 C537.833318,3014.87837 530.524136,3016.98392 524.193045,3020.61551 C524.113545,3020.64931 524.029227,3020.65173 523.952136,3020.69519 C523.858182,3020.75073 523.800364,3020.84007 523.716045,3020.90526 C510.909318,3028.46785 502.272727,3042.39538 502.272727,3058.34152 C502.272727,3059.67439 503.352,3060.75614 504.681818,3060.75614 L528.772727,3060.75614 C530.102545,3060.75614 531.181818,3059.67439 531.181818,3058.34152 C531.181818,3050.35155 537.664682,3043.85381 545.636364,3043.85381 C548.753727,3043.85381 551.721727,3044.83173 554.219955,3046.68133 C555.289591,3047.47573 556.797682,3047.25118 557.587864,3046.17426 C558.322636,3045.17702 558.146773,3043.82 557.260227,3042.9942 L566.939955,3026.18604 C576.689545,3032.69826 583.338636,3043.52059 584.107136,3055.9269 L564.709136,3055.9269 C564.369455,3054.87171 563.348,3054.15457 562.182,3054.27047 C560.857,3054.40328 559.890955,3055.58403 560.021045,3056.91207 C560.066818,3057.38292 560.090909,3057.8586 560.090909,3058.34152 C560.090909,3059.67439 561.170182,3060.75614 562.5,3060.75614 L586.590909,3060.75614 C587.920727,3060.75614 589,3059.67439 589,3058.34152 C589,3042.39538 580.363409,3028.46785 567.556682,3020.90526 L567.556682,3020.90526 Z M545.636364,3063.17076 C542.979136,3063.17076 540.818182,3061.00485 540.818182,3058.34152 C540.818182,3055.6782 542.979136,3053.51228 545.636364,3053.51228 C548.293591,3053.51228 550.454545,3055.6782 550.454545,3058.34152 C550.454545,3061.00485 548.293591,3063.17076 545.636364,3063.17076 L545.636364,3063.17076 Z M574.372,3044.90175 C575.530773,3044.24739 575.942727,3042.77447 575.289864,3041.61304 C574.639409,3040.45161 573.169864,3040.04112 572.008682,3040.69307 L552.567318,3051.66027 C550.8135,3049.8324 548.361045,3048.68304 545.636364,3048.68304 C540.321909,3048.68304 536,3053.01487 536,3058.34152 C536,3063.66817 540.321909,3068 545.636364,3068 C550.950818,3068 555.272727,3063.66817 555.272727,3058.34152 C555.272727,3057.48433 555.125773,3056.67061 554.916182,3055.87861 L574.372,3044.90175 Z M504.681818,3014.87837 C503.352,3014.87837 502.272727,3015.96012 502.272727,3017.29299 L502.272727,3031.78071 C502.272727,3033.11358 503.352,3034.19533 504.681818,3034.19533 C506.011636,3034.19533 507.090909,3033.11358 507.090909,3031.78071 L507.090909,3019.70761 L519.136364,3019.70761 C520.466182,3019.70761 521.545455,3018.62586 521.545455,3017.29299 C521.545455,3015.96012 520.466182,3014.87837 519.136364,3014.87837 L504.681818,3014.87837 Z M451.681818,3029.36609 L461.318182,3029.36609 L461.318182,3019.70761 L451.681818,3019.70761 L451.681818,3029.36609 Z M449.272727,3014.87837 C447.942909,3014.87837 446.863636,3015.96012 446.863636,3017.29299 L446.863636,3031.78071 C446.863636,3033.11358 447.942909,3034.19533 449.272727,3034.19533 L463.727273,3034.19533 C465.057091,3034.19533 466.136364,3033.11358 466.136364,3031.78071 L466.136364,3017.29299 C466.136364,3015.96012 465.057091,3014.87837 463.727273,3014.87837 L449.272727,3014.87837 Z M531.181818,2981.0737 L531.181818,2997.97604 L512.906455,2997.97604 L496.042818,2981.0737 L531.181818,2981.0737 Z M499.863636,3043.85381 L492.636364,3043.85381 L492.636364,3017.29299 C492.636364,3015.96012 491.557091,3014.87837 490.227273,3014.87837 L475.772727,3014.87837 C474.442909,3014.87837 473.363636,3015.96012 473.363636,3017.29299 L473.363636,3043.85381 L439.636364,3043.85381 L439.636364,3002.80528 L454.090909,3002.80528 C454.729318,3002.80528 455.343636,3002.55174 455.794136,3002.09779 L483,2974.82949 L510.205864,3002.09779 C510.656364,3002.55174 511.270682,3002.80528 511.909091,3002.80528 L526.363636,3002.80528 L526.363636,3012.46375 C526.363636,3013.79662 527.442909,3014.87837 528.772727,3014.87837 C530.102545,3014.87837 531.181818,3013.79662 531.181818,3012.46375 L531.181818,3002.80528 L533.590909,3002.80528 C534.920727,3002.80528 536,3001.72353 536,3000.39066 L536,2978.65908 C536,2977.32621 534.920727,2976.24446 533.590909,2976.24446 L491.224636,2976.24446 L484.703227,2969.70809 C483.761273,2968.76397 482.238727,2968.76397 481.296773,2969.70809 L474.775364,2976.24446 L432.409091,2976.24446 C431.079273,2976.24446 430,2977.32621 430,2978.65908 L430,3000.39066 C430,3001.72353 431.079273,3002.80528 432.409091,3002.80528 L434.818182,3002.80528 L434.818182,3046.26843 C434.818182,3047.6013 435.897455,3048.68304 437.227273,3048.68304 L499.863636,3048.68304 C501.193455,3048.68304 502.272727,3047.6013 502.272727,3046.26843 C502.272727,3044.93556 501.193455,3043.85381 499.863636,3043.85381 L499.863636,3043.85381 Z" id="Fill-1"></path>
        </g>
    </g>
</svg>