<?xml version="1.0" encoding="UTF-8"?>
<svg width="58px" height="115px" viewBox="0 0 58 115" version="1.1" xmlns="http://www.w3.org/2000/svg" xmlns:xlink="http://www.w3.org/1999/xlink">
    <title>Fill 4</title>
    <g id="Page-1" stroke="none" stroke-width="1" fill="none" fill-rule="evenodd">
        <g id="02-Quienes-somos" transform="translate(-933, -2950)" fill="#FFFFFF">
            <path d="M953.832163,3031.85373 C954.651401,3031.75999 955.366724,3031.25763 955.731636,3030.52211 L962.000379,3017.77318 L968.269122,3030.52211 C968.634034,3031.25763 969.34694,3031.75999 970.168595,3031.85373 L983.571236,3033.36563 L973.880542,3043.80225 C973.377882,3044.34307 973.153135,3045.0858 973.269134,3045.8141 L975.332937,3058.58948 L962.986365,3053.10676 C962.672203,3052.96735 962.336291,3052.89765 962.000379,3052.89765 C961.664467,3052.89765 961.328555,3052.96735 961.014393,3053.10676 L948.665404,3058.58948 L950.729208,3045.8141 C950.847623,3045.0858 950.622876,3044.34307 950.1178,3043.80225 L940.429522,3033.36563 L953.832163,3031.85373 Z M954.750483,3003.13017 L954.750483,2954.80729 L969.250275,2954.80729 L969.250275,3003.13017 L962.000379,3009.32437 L954.750483,3003.13017 Z M949.917219,2999.00071 L942.667324,2992.80652 L942.667324,2954.80729 L949.917219,2954.80729 L949.917219,2999.00071 Z M974.083539,2954.80729 L981.333434,2954.80729 L981.333434,2992.80652 L974.083539,2999.00071 L974.083539,2954.80729 Z M945.772696,3046.2059 L943.184483,3062.21418 C943.044318,3063.0867 943.39473,3063.96403 944.09797,3064.50245 C944.80121,3065.03846 945.746113,3065.15143 946.555684,3064.79088 L962.000379,3057.93328 L977.445074,3064.79088 C977.759236,3064.93029 978.095148,3065 978.428643,3065 C978.953052,3065 979.472628,3064.82934 979.902788,3064.50245 C980.606028,3063.96403 980.95644,3063.0867 980.816275,3062.21418 L978.228062,3046.2059 L990.357138,3033.14449 C990.975796,3032.47868 991.16671,3031.52203 990.847714,3030.67354 C990.531136,3029.82506 989.76023,3029.22655 988.85641,3029.12319 L972.029402,3027.22672 L965.057418,3013.05002 L985.323294,2995.73656 C985.857369,2995.27746 986.166698,2994.61165 986.166698,2993.91219 L986.166698,2952.40365 C986.166698,2951.07683 985.084047,2950 983.750066,2950 L940.250692,2950 C938.916711,2950 937.83406,2951.07683 937.83406,2952.40365 L937.83406,2993.91219 C937.83406,2994.61165 938.140972,2995.27746 938.677464,2995.73656 L958.940923,3013.05002 L951.971357,3027.22672 L935.144348,3029.12319 C934.240528,3029.22655 933.469623,3029.82506 933.150627,3030.67354 C932.834048,3031.52203 933.024962,3032.47868 933.64362,3033.14449 L945.772696,3046.2059 Z" id="Fill-4"></path>
        </g>
    </g>
</svg>