<?xml version="1.0" encoding="UTF-8"?>
<svg width="92px" height="110px" viewBox="0 0 92 110" version="1.1" xmlns="http://www.w3.org/2000/svg" xmlns:xlink="http://www.w3.org/1999/xlink">
    <title>Fill 3</title>
    <g id="Page-1" stroke="none" stroke-width="1" fill="none" fill-rule="evenodd">
        <g id="02-Quienes-somos" transform="translate(-1366, -2957)" fill="#FFFFFF">
            <path d="M1380.35794,3055.00541 L1377.96495,3055.00541 C1376.64402,3055.00541 1375.57196,3056.08012 1375.57196,3057.40433 C1375.57196,3058.72853 1376.64402,3059.80325 1377.96495,3059.80325 L1380.35794,3059.80325 C1381.67887,3059.80325 1382.75093,3058.72853 1382.75093,3057.40433 C1382.75093,3056.08012 1381.67887,3055.00541 1380.35794,3055.00541 L1380.35794,3055.00541 Z M1436.88754,3002.66341 C1436.37065,3003.21276 1436.14332,3003.97082 1436.26776,3004.71449 L1439.6323,3024.53435 L1420.80904,3015.83827 C1420.17251,3015.5456 1419.44264,3015.5456 1418.80611,3015.83827 L1406.67844,3021.43974 C1406.67844,3021.43255 1406.68083,3021.42775 1406.68083,3021.42055 L1406.68083,3017.70943 C1407.66435,3016.83382 1409.38491,3015.26973 1411.127,3013.52091 C1411.19161,3013.45854 1411.24905,3013.39137 1411.30409,3013.3242 C1415.34824,3008.25769 1414.18764,3001.15689 1410.6173,2997.95193 C1408.14055,2995.72814 1404.9172,2995.8049 1402.59599,2998.13425 C1402.05279,2998.67881 1401.29182,2999.42487 1400.45427,3000.2477 L1387.73553,2986.73699 L1408.4301,2984.51799 C1409.25569,2984.42923 1409.97598,2983.92066 1410.33492,2983.1698 L1419.80638,2963.37153 L1429.28023,2983.1698 C1429.63917,2983.92066 1430.36186,2984.42923 1431.18505,2984.51799 L1451.88202,2986.73699 L1436.88754,3002.66341 Z M1413.8598,3026.21839 C1413.8598,3031.5152 1407.69546,3036.25067 1407.63802,3036.29385 C1407.03499,3036.74724 1406.68083,3037.45732 1406.68083,3038.21298 L1406.68083,3045.40974 L1377.96734,3045.40974 L1377.96495,3012.30466 C1377.96495,3008.57195 1378.77617,3007.41807 1381.8392,3004.59454 L1391.09289,2997.29463 L1397.01794,3003.58939 C1393.4117,3007.08222 1389.12107,3011.20116 1386.19444,3014.0055 C1385.23964,3014.92188 1385.20374,3016.438 1386.11787,3017.39757 C1387.03199,3018.35713 1388.54675,3018.38832 1389.50155,3017.47193 C1393.54571,3013.59768 1398.37955,3008.95337 1401.981,3005.45095 C1401.99775,3005.43656 1402.01689,3005.43416 1402.03364,3005.41977 C1402.05039,3005.40297 1402.05518,3005.37899 1402.07193,3005.36219 C1403.68959,3003.7909 1405.07513,3002.43311 1405.97968,3001.52632 C1406.40324,3001.10171 1406.71433,3000.88581 1407.42505,3001.52872 C1408.86802,3002.82174 1410.18895,3006.92629 1407.6452,3010.2272 C1405.19478,3012.6741 1402.75393,3014.78035 1402.72761,3014.80434 C1402.19876,3015.26013 1401.89485,3015.92223 1401.89485,3016.62272 L1401.89485,3021.42055 C1401.89485,3028.39661 1396.13732,3030.50286 1394.9815,3030.8555 C1393.718,3031.23932 1393.00489,3032.58032 1393.38777,3033.84695 C1393.70125,3034.88328 1394.65127,3035.55018 1395.67547,3035.55018 C1395.90759,3035.55018 1396.1421,3035.5166 1396.37183,3035.44703 C1399.98046,3034.34832 1403.73984,3031.66873 1405.55612,3027.24273 L1413.8598,3023.40686 L1413.8598,3026.21839 Z M1457.77595,2984.55398 C1457.29735,2983.26336 1456.1535,2982.36856 1454.7895,2982.22463 L1433.02047,2979.89048 L1423.04409,2959.04148 C1422.44106,2957.78205 1421.20149,2957 1419.80877,2957 C1418.41366,2957 1417.17409,2957.78205 1416.57106,2959.04148 L1406.59468,2979.89048 L1384.82565,2982.22463 C1383.46165,2982.36856 1382.3178,2983.26336 1381.84159,2984.55398 C1381.36539,2985.84459 1381.65494,2987.26955 1382.59778,2988.2723 L1387.79535,2993.79221 L1378.74028,3000.94099 C1375.28001,3004.12435 1373.17897,3006.47529 1373.17897,3012.30466 L1373.18136,3045.40974 L1368.39299,3045.40974 C1367.07206,3045.40974 1366,3046.48445 1366,3047.80865 L1366,3064.60108 C1366,3065.92528 1367.07206,3067 1368.39299,3067 C1369.71392,3067 1370.78598,3065.92528 1370.78598,3064.60108 L1370.78598,3050.20757 L1413.8598,3050.20757 L1413.8598,3064.60108 C1413.8598,3065.92528 1414.93186,3067 1416.25279,3067 C1417.57372,3067 1418.64578,3065.92528 1418.64578,3064.60108 L1418.64578,3047.80865 C1418.64578,3046.48445 1417.57372,3045.40974 1416.25279,3045.40974 L1411.46681,3045.40974 L1411.46681,3039.34287 C1413.62529,3037.45492 1418.64578,3032.4004 1418.64578,3026.21839 L1418.64578,3021.19505 L1419.80638,3020.6577 L1439.68973,3029.84315 C1440.17072,3030.06625 1440.68522,3030.17421 1441.19492,3030.17421 C1441.97025,3030.17421 1442.73601,3029.92232 1443.37494,3029.43294 C1444.43503,3028.61731 1444.9567,3027.2931 1444.73176,3025.9713 L1441.18535,3005.08632 L1457.01976,2988.2699 C1457.96021,2987.26955 1458.24976,2985.84459 1457.77595,2984.55398 L1457.77595,2984.55398 Z" id="Fill-3"></path>
        </g>
    </g>
</svg>