<?xml version="1.0" encoding="UTF-8"?>
<svg width="209px" height="79px" viewBox="0 0 209 79" version="1.1" xmlns="http://www.w3.org/2000/svg" xmlns:xlink="http://www.w3.org/1999/xlink">
    <title>Fill 1</title>
    <g id="Page-1" stroke="none" stroke-width="1" fill="none" fill-rule="evenodd">
        <g id="01-Home" transform="translate(-879, -4229)" fill="#BBA110">
            <path d="M932.800629,4249.53619 C932.702783,4249.6169 932.611256,4249.67997 932.53427,4249.75766 C928.509726,4253.81993 924.487968,4257.88508 920.4586,4261.94255 C920.227846,4262.17493 920.260257,4262.31515 920.473549,4262.52728 C921.561478,4263.6096 922.64105,4264.70062 923.714031,4265.79803 C923.904491,4265.99281 924.066345,4266.01861 924.30967,4265.89727 C927.03673,4264.53811 929.757335,4263.165 932.501722,4261.84242 C935.461032,4260.41619 938.556918,4259.43285 941.834908,4259.09292 C941.929153,4259.08311 942.018981,4259.02992 942.110848,4258.99697 C942.066002,4258.90062 942.041948,4258.78422 941.972912,4258.71113 C941.528526,4258.2399 941.079588,4257.77266 940.62236,4257.31414 C938.094186,4254.7785 935.563431,4252.2456 933.032131,4249.71312 C932.97057,4249.65149 932.89304,4249.60605 932.800629,4249.53619 L932.800629,4249.53619 Z M900.483194,4271.66379 C900.876686,4271.62385 901.180282,4271.58788 901.484761,4271.56297 C905.256942,4271.25386 908.994402,4270.72066 912.687627,4269.86957 C915.483452,4269.22519 918.220024,4268.39537 920.895036,4267.35486 C921.269026,4267.20936 921.288052,4267.127 921.010888,4266.84706 C915.560302,4261.34244 910.108356,4255.83919 904.664564,4250.32778 C904.421715,4250.08187 904.292544,4250.15414 904.0906,4250.35852 C899.661013,4254.84116 895.226601,4259.31892 890.792666,4263.7971 C889.592145,4265.00967 888.389246,4266.21977 887.191375,4267.43488 C887.118534,4267.50873 887.080755,4267.61772 887.026667,4267.71037 C887.127368,4267.74908 887.225146,4267.80577 887.32938,4267.82299 C887.585955,4267.86534 887.844908,4267.89595 888.103997,4267.92004 C889.84573,4268.08207 891.548529,4268.44994 893.226934,4268.93207 C895.517083,4269.59004 897.717403,4270.4926 899.890136,4271.46805 C900.103836,4271.564 900.336832,4271.6163 900.483194,4271.66379 L900.483194,4271.66379 Z M1065.60249,4282.00841 C1066.72269,4282.00841 1067.79581,4282.00841 1068.86893,4282.00848 C1069.463,4282.00848 1069.463,4282.00855 1069.463,4282.62307 C1069.463,4282.92003 1069.46375,4283.21693 1069.4628,4283.5139 C1069.46151,4283.92864 1069.4204,4283.97386 1069.02195,4283.97414 C1067.20065,4283.9753 1065.37934,4283.97016 1063.55804,4283.97909 C1063.25295,4283.98052 1063.13771,4283.87744 1063.14063,4283.5616 C1063.1528,4282.24834 1063.14573,4280.93495 1063.14573,4279.62156 C1063.14573,4278.30823 1063.15286,4276.99477 1063.1405,4275.68159 C1063.13758,4275.37234 1063.2325,4275.24914 1063.54846,4275.26006 C1064.09076,4275.27879 1064.63483,4275.28085 1065.17699,4275.2593 C1065.50288,4275.2464 1065.61078,4275.35689 1065.60867,4275.69017 C1065.5961,4277.65446 1065.60249,4279.61881 1065.60249,4281.5831 C1065.60249,4281.70684 1065.60249,4281.83065 1065.60249,4282.00841 L1065.60249,4282.00841 Z M1058.01763,4282.00841 C1058.17425,4282.00841 1058.2952,4282.00841 1058.41615,4282.00841 C1059.43423,4282.00848 1060.45224,4282.01404 1061.47025,4282.00498 C1061.76202,4282.00237 1061.8793,4282.11794 1061.86972,4282.41141 C1061.8566,4282.8107 1061.86061,4283.21082 1061.86836,4283.61032 C1061.87339,4283.87346 1061.75597,4283.97723 1061.49994,4283.97668 C1059.63352,4283.9727 1057.7671,4283.97304 1055.90068,4283.9762 C1055.64479,4283.97668 1055.53525,4283.86824 1055.53559,4283.60621 C1055.5394,4280.94545 1055.53953,4278.28463 1055.53539,4275.62387 C1055.53498,4275.35552 1055.65369,4275.25971 1055.90659,4275.26299 C1056.44944,4275.27035 1056.99248,4275.26486 1057.53539,4275.26527 C1058.0075,4275.26568 1058.01722,4275.27419 1058.01736,4275.74027 C1058.01797,4277.68163 1058.01763,4279.623 1058.01763,4281.56437 L1058.01763,4282.00841 Z M1022.13213,4280.39524 C1021.86801,4279.62375 1021.61939,4278.8975 1021.34175,4278.08649 C1021.06214,4278.9137 1020.81576,4279.64242 1020.56129,4280.39524 L1022.13213,4280.39524 Z M1021.39033,4275.26534 C1021.76371,4275.26534 1022.13797,4275.25093 1022.50979,4275.27481 C1022.61063,4275.28133 1022.75869,4275.38318 1022.79307,4275.47597 C1023.79001,4278.1661 1024.77622,4280.86035 1025.76087,4283.55515 C1025.86463,4283.83907 1025.77494,4283.9705 1025.48119,4283.9729 C1024.84771,4283.97819 1024.21401,4283.96899 1023.5806,4283.97819 C1023.40631,4283.98073 1023.31729,4283.92767 1023.26409,4283.75418 C1023.1373,4283.34074 1022.98441,4282.93548 1022.85409,4282.52307 C1022.79993,4282.35191 1022.73178,4282.26221 1022.52698,4282.26584 C1021.73531,4282.27984 1020.94316,4282.2771 1020.15128,4282.26735 C1019.96898,4282.26516 1019.89688,4282.33406 1019.84517,4282.50214 C1019.71804,4282.9155 1019.56176,4283.31967 1019.43293,4283.73256 C1019.37639,4283.91374 1019.28779,4283.98306 1019.09441,4283.97908 C1018.49503,4283.96673 1017.89525,4283.9773 1017.29566,4283.97359 C1016.96503,4283.97153 1016.87452,4283.85403 1016.98459,4283.55233 C1017.96849,4280.85692 1018.95416,4278.16226 1019.9507,4275.47165 C1019.98474,4275.37975 1020.13532,4275.28078 1020.2369,4275.27461 C1020.6202,4275.25148 1021.00567,4275.26534 1021.39033,4275.26534 L1021.39033,4275.26534 Z M1003.75644,4277.19682 L1003.75644,4278.30707 C1003.88575,4278.31441 1004.00486,4278.32677 1004.12398,4278.32697 C1005.06324,4278.32862 1006.00249,4278.33466 1006.94162,4278.32395 C1007.22816,4278.32073 1007.35936,4278.41564 1007.34734,4278.71913 C1007.33191,4279.10696 1007.33477,4279.4961 1007.34645,4279.88421 C1007.35522,4280.17706 1007.23794,4280.29057 1006.94427,4280.287 C1006.00521,4280.27554 1005.06589,4280.28275 1004.12663,4280.28275 L1003.7684,4280.28275 L1003.7684,4282.00841 C1003.89825,4282.00841 1004.01907,4282.00841 1004.13988,4282.00841 C1005.15836,4282.00841 1006.17685,4282.01513 1007.1952,4282.00443 C1007.50117,4282.0012 1007.62851,4282.11822 1007.61845,4282.42781 C1007.60548,4282.82724 1007.61023,4283.2275 1007.61689,4283.62721 C1007.62097,4283.87222 1007.51789,4283.97723 1007.27191,4283.97668 C1005.39347,4283.97263 1003.51502,4283.97235 1001.63651,4283.97702 C1001.37687,4283.97771 1001.27217,4283.87181 1001.27257,4283.60964 C1001.27658,4280.94778 1001.27672,4278.28593 1001.27237,4275.62408 C1001.27196,4275.35813 1001.38,4275.2615 1001.63902,4275.26225 C1003.51747,4275.26795 1005.39598,4275.26781 1007.27443,4275.26239 C1007.52339,4275.2617 1007.62158,4275.36369 1007.61716,4275.60911 C1007.60962,4276.02021 1007.60833,4276.43173 1007.61764,4276.84283 C1007.62362,4277.10898 1007.51021,4277.20286 1007.24997,4277.20053 C1006.22027,4277.1914 1005.1905,4277.19682 1004.16074,4277.19682 C1004.03789,4277.19682 1003.9151,4277.19682 1003.75644,4277.19682 L1003.75644,4277.19682 Z M1080.32008,4282.34978 C1080.32008,4282.08706 1080.30601,4281.82324 1080.32599,4281.5621 C1080.33618,4281.42868 1080.38334,4281.20831 1080.45632,4281.18875 C1080.59622,4281.15121 1080.80007,4281.1814 1080.9185,4281.26678 C1081.54642,4281.71906 1082.2342,4282.0176 1082.98775,4282.16647 C1083.54935,4282.27744 1084.11353,4282.28698 1084.66622,4282.12879 C1084.92783,4282.05398 1085.19962,4281.9358 1085.20486,4281.59559 C1085.20995,4281.26383 1084.96873,4281.10529 1084.69782,4281.03364 C1084.04293,4280.86049 1083.37628,4280.73187 1082.72316,4280.55261 C1082.36602,4280.4546 1082.00888,4280.32441 1081.68245,4280.15002 C1080.03082,4279.26735 1079.87134,4277.08413 1081.36438,4275.94403 C1082.11488,4275.37103 1082.98245,4275.14736 1083.90214,4275.10969 C1085.00869,4275.06432 1086.08622,4275.23041 1087.13406,4275.60218 C1087.3377,4275.67445 1087.41856,4275.76724 1087.41204,4275.98851 C1087.39689,4276.502 1087.41741,4277.01674 1087.40008,4277.5301 C1087.39566,4277.6594 1087.3307,4277.8633 1087.24454,4277.89446 C1087.12611,4277.93728 1086.9347,4277.88753 1086.81993,4277.80942 C1085.95746,4277.22229 1085.02167,4276.90329 1083.97532,4276.99676 C1083.72201,4277.01941 1083.45313,4277.08022 1083.23407,4277.20183 C1083.08512,4277.28453 1082.92259,4277.50656 1082.92755,4277.66111 C1082.93231,4277.81162 1083.11597,4278.03817 1083.26709,4278.08738 C1083.79179,4278.2582 1084.33973,4278.35463 1084.87272,4278.50191 C1085.33973,4278.63101 1085.81103,4278.75935 1086.25895,4278.9417 C1088.21798,4279.7394 1088.04213,4282.12934 1086.88462,4283.12023 C1086.12298,4283.77223 1085.22864,4284.037 1084.26417,4284.10776 C1083.00617,4284.20007 1081.7856,4284.016 1080.60594,4283.55412 C1080.39971,4283.47334 1080.29113,4283.38075 1080.31444,4283.13739 C1080.33938,4282.87714 1080.32008,4282.6125 1080.32008,4282.34978 L1080.32008,4282.34978 Z M1008.95073,4282.35012 C1008.95073,4282.08727 1008.93591,4281.82317 1008.95684,4281.56203 C1008.96765,4281.4282 1009.01725,4281.21023 1009.09369,4281.18834 C1009.23272,4281.14853 1009.43942,4281.17811 1009.55737,4281.26369 C1010.18448,4281.71858 1010.86886,4282.0559 1011.62812,4282.15267 C1012.16743,4282.22137 1012.72719,4282.18218 1013.2718,4282.12858 C1013.54183,4282.10202 1013.83102,4281.96407 1013.83883,4281.59676 C1013.84651,4281.23686 1013.58464,4281.09555 1013.30713,4281.02115 C1012.7507,4280.87202 1012.17551,4280.78918 1011.62615,4280.61932 C1011.10077,4280.45687 1010.55792,4280.28598 1010.09356,4280.00116 C1008.79343,4279.2038 1008.60358,4277.32537 1009.68104,4276.23544 C1010.47027,4275.43719 1011.47313,4275.15711 1012.55188,4275.10996 C1013.64763,4275.06206 1014.71469,4275.23034 1015.75343,4275.59374 C1015.978,4275.67232 1016.07897,4275.77088 1016.06735,4276.0268 C1016.045,4276.51717 1016.07286,4277.00987 1016.05315,4277.50052 C1016.04758,4277.64039 1015.98384,4277.84525 1015.88477,4277.89528 C1015.78122,4277.94758 1015.57663,4277.88869 1015.46172,4277.81032 C1014.59932,4277.22194 1013.66298,4276.90034 1012.61637,4276.99807 C1012.34212,4277.02374 1012.05857,4277.10788 1011.81403,4277.23382 C1011.68254,4277.30149 1011.54114,4277.52413 1011.55589,4277.66008 C1011.57247,4277.81327 1011.73296,4278.02438 1011.87769,4278.07578 C1012.31229,4278.22993 1012.77197,4278.31043 1013.21771,4278.43479 C1013.77197,4278.58942 1014.33778,4278.71879 1014.87138,4278.92948 C1016.88553,4279.72499 1016.70057,4282.19261 1015.44746,4283.19181 C1014.66665,4283.8145 1013.76497,4284.05746 1012.79928,4284.11428 C1011.60977,4284.18422 1010.456,4284.01051 1009.33593,4283.58761 C1009.05652,4283.48205 1008.89453,4283.36792 1008.94434,4283.03485 C1008.97777,4282.81139 1008.95073,4282.57866 1008.95073,4282.35012 L1008.95073,4282.35012 Z M1072.71069,4279.59452 C1072.84074,4280.14274 1072.91127,4280.66811 1073.09283,4281.15093 C1073.35274,4281.84239 1073.90136,4282.20963 1074.63982,4282.23091 C1075.37734,4282.25212 1075.95239,4281.92385 1076.25103,4281.24674 C1076.73972,4280.13869 1076.74176,4279.00463 1076.21101,4277.90592 C1075.89803,4277.25797 1075.33154,4276.97247 1074.62657,4276.9945 C1073.93166,4277.01626 1073.39072,4277.34301 1073.13564,4277.99493 C1072.93567,4278.50596 1072.84767,4279.06167 1072.71069,4279.59452 L1072.71069,4279.59452 Z M1070.2434,4279.69527 C1070.25175,4277.49743 1071.21513,4275.94232 1072.90455,4275.36136 C1074.04955,4274.96762 1075.21474,4274.96625 1076.37143,4275.32965 C1077.30587,4275.62318 1078.01906,4276.20792 1078.52548,4277.05359 C1079.43355,4278.56999 1079.46501,4281.60939 1077.79829,4283.07768 C1077.16453,4283.63592 1076.43578,4283.96734 1075.60946,4284.07722 C1074.65763,4284.20378 1073.70682,4284.19287 1072.80351,4283.82658 C1071.23926,4283.19243 1070.47361,4281.95343 1070.28084,4280.30842 C1070.25305,4280.07102 1070.25121,4279.83054 1070.2434,4279.69527 L1070.2434,4279.69527 Z M1051.38534,4279.60083 C1051.35809,4278.99304 1051.28947,4278.38359 1050.96725,4277.83441 C1050.32507,4276.74008 1048.66827,4276.66768 1048.04892,4277.76722 C1047.37357,4278.96599 1047.36093,4280.25173 1048.04946,4281.45689 C1048.62186,4282.4587 1050.07651,4282.50818 1050.80696,4281.61186 C1051.28152,4281.02952 1051.34926,4280.32585 1051.38534,4279.60083 L1051.38534,4279.60083 Z M1049.56574,4284.13796 C1047.98212,4284.15196 1046.71114,4283.69145 1045.8134,4282.42898 C1045.24473,4281.62943 1045.04327,4280.70689 1045.02839,4279.74647 C1045.01133,4278.64336 1045.20797,4277.58624 1045.89303,4276.67955 C1046.82094,4275.45147 1048.11666,4275.05931 1049.57165,4275.0764 C1050.87627,4275.0917 1052.04404,4275.46931 1052.92635,4276.50887 C1054.46281,4278.31908 1054.21793,4281.73553 1052.44419,4283.19813 C1051.57825,4283.9121 1050.56377,4284.15601 1049.56574,4284.13796 L1049.56574,4284.13796 Z M1029.48162,4279.08871 C1029.99449,4279.04966 1030.46952,4279.04327 1030.93402,4278.9697 C1031.38704,4278.89791 1031.66536,4278.51372 1031.68289,4278.04325 C1031.69879,4277.61712 1031.52015,4277.29023 1031.12,4277.22455 C1030.58436,4277.13657 1030.03465,4277.13602 1029.48162,4277.09724 L1029.48162,4279.08871 Z M1032.68452,4280.29545 C1033.47463,4281.32018 1034.25176,4282.32802 1035.02883,4283.33594 C1035.09134,4283.41699 1035.15847,4283.49496 1035.21487,4283.5802 C1035.35206,4283.78746 1035.27337,4283.96796 1035.02706,4283.97071 C1034.2239,4283.9797 1033.42041,4283.98231 1032.61759,4283.96371 C1032.51295,4283.96124 1032.38629,4283.8399 1032.31243,4283.74114 C1031.72651,4282.95771 1031.12244,4282.18561 1030.58375,4281.36973 C1030.30047,4280.94065 1029.97438,4280.81642 1029.46504,4280.93804 C1029.46504,4281.23638 1029.46504,4281.55194 1029.46504,4281.86751 C1029.46504,4282.43859 1029.4545,4283.00994 1029.46925,4283.58068 C1029.47706,4283.88142 1029.35768,4283.98601 1029.06781,4283.9786 C1028.5251,4283.96474 1027.98144,4283.96302 1027.43887,4283.97901 C1027.11611,4283.98848 1027.00196,4283.86378 1027.00344,4283.5373 C1027.01296,4281.4129 1027.00828,4279.28842 1027.00828,4277.16402 C1027.00828,4276.66143 1027.0165,4276.15871 1027.00508,4275.6564 C1026.99883,4275.3827 1027.09824,4275.26054 1027.37887,4275.2625 C1028.75898,4275.27248 1030.13936,4275.25882 1031.5192,4275.28222 C1032.32249,4275.29588 1033.06272,4275.53307 1033.63492,4276.13881 C1034.51778,4277.07329 1034.40947,4278.82413 1033.41613,4279.72972 C1033.19985,4279.9269 1032.95285,4280.08969 1032.68452,4280.29545 L1032.68452,4280.29545 Z M993.978873,4282.05247 C995.060959,4282.09529 996.118583,4282.13373 996.778842,4281.07002 C997.298311,4280.23299 997.245039,4278.75344 996.674812,4278.00708 C995.98119,4277.09923 994.988865,4277.12874 993.978873,4277.1507 L993.978873,4282.05247 Z M991.482227,4279.59809 C991.482227,4278.2965 991.491129,4276.99484 991.476044,4275.69346 C991.472171,4275.3617 991.580617,4275.25415 991.906772,4275.25937 C993.07128,4275.27811 994.23735,4275.24118 995.400567,4275.28586 C996.569084,4275.33075 997.660139,4275.64961 998.495978,4276.54346 C999.709137,4277.84072 999.942609,4279.38917 999.436798,4281.02925 C998.940432,4282.63844 997.799978,4283.64299 996.134415,4283.83468 C994.837611,4283.98388 993.518587,4283.94085 992.209144,4283.97263 C991.415841,4283.99184 991.480393,4284.0077 991.481684,4283.22874 C991.483654,4282.01857 991.482227,4280.80833 991.482227,4279.59809 L991.482227,4279.59809 Z M1038.74536,4279.09379 C1039.27006,4279.04636 1039.77777,4279.03874 1040.26918,4278.94431 C1040.69073,4278.86332 1040.92645,4278.47501 1040.93229,4278.02259 C1040.93759,4277.61479 1040.78389,4277.31171 1040.41044,4277.24466 C1039.8659,4277.14693 1039.30587,4277.13698 1038.74536,4277.089 L1038.74536,4279.09379 Z M1038.7262,4280.9449 C1038.7262,4281.78522 1038.72667,4282.62856 1038.72606,4283.4719 C1038.72565,4283.96281 1038.7141,4283.97414 1038.23139,4283.97455 C1037.71104,4283.97496 1037.19048,4283.96721 1036.67033,4283.97764 C1036.38937,4283.98327 1036.25428,4283.88293 1036.25483,4283.58205 C1036.25965,4280.93241 1036.25938,4278.28277 1036.25503,4275.6332 C1036.25456,4275.37426 1036.34669,4275.26047 1036.61251,4275.26237 C1038.00383,4275.27262 1039.39536,4275.2604 1040.78647,4275.2825 C1041.51536,4275.2941 1042.17623,4275.52408 1042.75509,4276.00203 C1043.7714,4276.84118 1043.73226,4278.99056 1042.47616,4279.89766 C1042.3035,4280.02229 1042.12935,4280.14487 1041.92971,4280.28707 C1042.56966,4281.11737 1043.19947,4281.9349 1043.8297,4282.75209 C1044.03117,4283.0133 1044.24181,4283.26792 1044.43078,4283.53806 C1044.48575,4283.61657 1044.5242,4283.75836 1044.48996,4283.83427 C1044.45755,4283.90612 1044.32043,4283.96734 1044.22849,4283.96858 C1043.47066,4283.97908 1042.71228,4283.98656 1041.95506,4283.96364 C1041.8176,4283.95952 1041.64446,4283.84346 1041.55572,4283.72652 C1040.96464,4282.94728 1040.36594,4282.17148 1039.82432,4281.35751 C1039.54872,4280.94325 1039.2369,4280.8075 1038.7262,4280.9449 L1038.7262,4280.9449 Z M976.52702,4265.73304 L976.938383,4265.73304 C978.613662,4265.73304 980.288942,4265.73263 981.964221,4265.73325 C982.412276,4265.73345 982.515286,4265.83969 982.515626,4266.29767 C982.516102,4266.94904 982.517393,4267.60042 982.515083,4268.2518 C982.513792,4268.60744 982.37769,4268.74951 982.028705,4268.74965 C979.074288,4268.7513 976.119938,4268.7513 973.165589,4268.74958 C972.828427,4268.74937 972.701023,4268.61781 972.700887,4268.26889 C972.699392,4264.07491 972.699392,4259.88101 972.700751,4255.6871 C972.700887,4255.31657 972.822244,4255.19653 973.189236,4255.19571 C974.128765,4255.19351 975.068294,4255.19365 976.007823,4255.19564 C976.391462,4255.19639 976.526477,4255.33805 976.526545,4255.73803 C976.52736,4258.91489 976.52702,4262.09175 976.52702,4265.26861 L976.52702,4265.73304 Z M1065.05883,4258.23579 C1064.16666,4258.23579 1063.31968,4258.23579 1062.4727,4258.23579 C1062.14443,4258.23579 1061.81611,4258.23407 1061.48784,4258.23606 C1061.18418,4258.23785 1061.02715,4258.09557 1061.0281,4257.78166 C1061.03007,4257.07311 1061.02967,4256.36456 1061.02831,4255.65595 C1061.02769,4255.34745 1061.17698,4255.19488 1061.48241,4255.19488 C1065.13887,4255.19509 1068.79527,4255.1944 1072.45174,4255.19605 C1072.77633,4255.19619 1072.9248,4255.3469 1072.92629,4255.67118 C1072.92948,4256.35687 1072.9286,4257.04264 1072.92677,4257.72833 C1072.92581,4258.10422 1072.7959,4258.23428 1072.4143,4258.23496 C1071.26025,4258.23702 1070.10628,4258.23572 1068.88605,4258.23572 L1068.88605,4258.68155 C1068.88605,4261.83576 1068.88619,4264.99004 1068.88591,4268.14432 C1068.88591,4268.67505 1068.80893,4268.75047 1068.27193,4268.75069 C1067.42291,4268.75069 1066.57389,4268.75069 1065.72486,4268.75069 C1065.1138,4268.75069 1065.05883,4268.69653 1065.05883,4268.0947 C1065.05876,4264.96327 1065.05883,4261.83192 1065.05883,4258.70049 L1065.05883,4258.23579 Z M1030.09941,4257.81556 C1030.09941,4258.24986 1030.08887,4258.6845 1030.10362,4259.11824 C1030.11171,4259.35502 1030.07759,4259.60552 1029.85017,4259.65501 C1029.64721,4259.69914 1029.37827,4259.65055 1029.19739,4259.54238 C1028.53876,4259.14865 1027.94488,4258.62156 1027.2531,4258.31231 C1025.92211,4257.71742 1024.62395,4257.83896 1023.48961,4258.84763 C1023.03537,4259.25159 1022.76704,4259.78554 1022.60342,4260.36252 C1022.31111,4261.3935 1022.2965,4262.4404 1022.5617,4263.47741 C1023.05236,4265.39592 1024.82868,4266.37886 1026.79628,4265.84415 C1027.71617,4265.5942 1028.47441,4265.06094 1029.17884,4264.44305 C1029.38051,4264.26619 1029.59346,4264.1793 1029.82462,4264.27326 C1030.07277,4264.37401 1030.10844,4264.61305 1030.1045,4264.8746 C1030.09112,4265.75438 1030.09458,4266.63451 1030.10308,4267.51443 C1030.10505,4267.70941 1030.04953,4267.81098 1029.86498,4267.90219 C1028.17258,4268.73867 1026.40265,4269.09974 1024.51041,4268.9784 C1021.2263,4268.76777 1018.87935,4266.56409 1018.50869,4263.26376 C1018.35132,4261.86246 1018.40167,4260.47625 1018.88621,4259.14055 C1019.75059,4256.75802 1021.49341,4255.43434 1023.93542,4255.0605 C1025.96295,4254.75009 1027.9226,4255.04218 1029.77692,4255.96719 C1030.00761,4256.08228 1030.1236,4256.2004 1030.10668,4256.4789 C1030.07963,4256.92294 1030.09941,4257.36987 1030.09941,4257.81556 L1030.09941,4257.81556 Z M963.911564,4258.23579 L963.911564,4259.98409 L964.277809,4259.98409 C965.839478,4259.98409 967.401215,4259.98361 968.962952,4259.98437 C969.366908,4259.98464 969.483644,4260.10214 969.484595,4260.5096 C969.48609,4261.1837 969.487517,4261.85779 969.483916,4262.53181 C969.482149,4262.86358 969.34299,4263.00029 969.009361,4263.0007 C967.436276,4263.00235 965.86326,4263.00146 964.290244,4263.00146 L963.909934,4263.00146 L963.909934,4265.73304 L964.2897,4265.73304 C965.987267,4265.73304 967.684765,4265.7327 969.382264,4265.73325 C969.829707,4265.73345 969.914644,4265.81958 969.915323,4266.27289 C969.91641,4266.93552 969.917905,4267.59823 969.914644,4268.26086 C969.912809,4268.63105 969.793627,4268.74979 969.424053,4268.74992 C966.470383,4268.75116 963.516714,4268.75116 960.563044,4268.74985 C960.217456,4268.74972 960.089372,4268.62543 960.089305,4268.28488 C960.087878,4264.08047 960.087878,4259.87614 960.089305,4255.67173 C960.08944,4255.34066 960.232745,4255.19612 960.560054,4255.19598 C963.513724,4255.19433 966.467461,4255.19447 969.421131,4255.19571 C969.771883,4255.19584 969.912673,4255.33661 969.914508,4255.68985 C969.918041,4256.37534 969.917769,4257.06082 969.914644,4257.74631 C969.912945,4258.10353 969.78058,4258.23455 969.419568,4258.23496 C967.722069,4258.23675 966.024571,4258.23579 964.327004,4258.23579 L963.911564,4258.23579 Z M1037.97692,4259.57855 C1037.55075,4260.83217 1037.15209,4262.00466 1036.74542,4263.20076 L1039.2068,4263.20076 C1038.79938,4262.00082 1038.40255,4260.8321 1037.97692,4259.57855 L1037.97692,4259.57855 Z M1042.89099,4268.75061 C1042.39292,4268.75061 1041.89445,4268.73922 1041.39686,4268.75576 C1041.17174,4268.76324 1041.06112,4268.7047 1040.98815,4268.47183 C1040.76656,4267.76527 1040.50292,4267.07224 1040.27835,4266.36657 C1040.20945,4266.14997 1040.10569,4266.09274 1039.8924,4266.09431 C1038.61326,4266.10358 1037.33392,4266.10447 1036.05472,4266.09356 C1035.83456,4266.09164 1035.73896,4266.16459 1035.6721,4266.37241 C1035.44189,4267.08823 1035.1866,4267.79581 1034.95238,4268.51033 C1034.89368,4268.68932 1034.81064,4268.75761 1034.61576,4268.75555 C1033.59701,4268.74484 1032.57811,4268.75281 1031.55922,4268.74937 C1031.20854,4268.74821 1031.05103,4268.5198 1031.17205,4268.18893 C1032.72597,4263.94115 1034.28275,4259.69447 1035.833,4255.44532 C1035.90278,4255.25397 1035.99723,4255.18877 1036.1989,4255.19035 C1037.41023,4255.19969 1038.62169,4255.20525 1039.83274,4255.1867 C1040.09122,4255.1828 1040.15319,4255.31197 1040.22338,4255.50434 C1041.31688,4258.50146 1042.41398,4261.4972 1043.51007,4264.49329 C1043.95235,4265.70236 1044.39395,4266.91157 1044.83636,4268.12058 C1044.99108,4268.54355 1044.85627,4268.74917 1044.41936,4268.75033 C1043.90988,4268.75164 1043.40047,4268.75061 1042.89099,4268.75061 L1042.89099,4268.75061 Z M994.887553,4263.00146 L994.887553,4265.73304 L995.271532,4265.73304 C996.969031,4265.73304 998.66653,4265.73249 1000.36403,4265.73338 C1000.7779,4265.73359 1000.88873,4265.8434 1000.88995,4266.25601 C1000.89199,4266.91864 1000.89267,4267.58127 1000.88961,4268.24391 C1000.88791,4268.61479 1000.7493,4268.74999 1000.37381,4268.75013 C997.431491,4268.75102 994.489169,4268.75109 991.546847,4268.75006 C991.177545,4268.74992 991.041103,4268.61163 991.041035,4268.23368 C991.03988,4264.06366 991.039948,4259.89364 991.040899,4255.72355 C991.040967,4255.32597 991.17306,4255.19543 991.56927,4255.19536 C994.500245,4255.19461 997.431219,4255.19461 1000.36226,4255.19536 C1000.758,4255.19543 1000.88866,4255.32617 1000.88995,4255.72423 C1000.89206,4256.39833 1000.89281,4257.07235 1000.88961,4257.74645 C1000.88785,4258.10381 1000.75562,4258.23455 1000.3944,4258.23496 C998.696903,4258.23675 996.999404,4258.23579 995.301905,4258.23579 C995.169677,4258.23579 995.03738,4258.23579 994.886534,4258.23579 L994.886534,4259.98409 L995.252778,4259.98409 C996.803168,4259.98409 998.353489,4259.98382 999.903879,4259.98423 C1000.36056,4259.98437 1000.44822,4260.07544 1000.44849,4260.54742 C1000.4489,4261.21005 1000.45053,4261.87268 1000.44781,4262.53531 C1000.44652,4262.87566 1000.32068,4263.00043 999.977331,4263.00077 C998.415662,4263.00228 996.853993,4263.00146 995.292257,4263.00146 L994.887553,4263.00146 Z M1084.00162,4261.9256 C1084.015,4261.01706 1083.87747,4260.07702 1083.38097,4259.22304 C1082.85247,4258.31409 1082.04279,4257.88309 1081.01404,4257.89949 C1079.93943,4257.91658 1079.09646,4258.39803 1078.64922,4259.39236 C1077.90266,4261.05227 1077.88282,4262.75939 1078.58983,4264.43708 C1079.03904,4265.50306 1079.89601,4266.04456 1081.05073,4266.04932 C1082.22455,4266.0541 1083.04055,4265.47176 1083.54398,4264.42109 C1083.91186,4263.65318 1084.0061,4262.83057 1084.00162,4261.9256 L1084.00162,4261.9256 Z M1088,4261.96259 C1087.97323,4263.265 1087.76653,4264.51964 1087.15492,4265.67422 C1086.07766,4267.70804 1084.32974,4268.71671 1082.10639,4268.96536 C1081.0298,4269.0858 1079.95893,4269.03989 1078.90661,4268.76674 C1076.78803,4268.21673 1075.32332,4266.90629 1074.6049,4264.82347 C1073.94403,4262.9075 1073.94756,4260.95213 1074.63289,4259.04474 C1075.45922,4256.74498 1077.15821,4255.45719 1079.51984,4255.05652 C1080.95513,4254.81302 1082.39123,4254.86237 1083.77344,4255.35802 C1086.02853,4256.1667 1087.32928,4257.82373 1087.79398,4260.16343 C1087.91105,4260.75331 1087.93382,4261.36234 1088,4261.96259 L1088,4261.96259 Z M1007.20784,4260.58619 C1007.20784,4260.71563 1007.20784,4260.845 1007.20784,4260.97444 C1007.20784,4263.37447 1007.20811,4265.77442 1007.20764,4268.17445 C1007.2075,4268.66221 1007.11869,4268.75027 1006.63177,4268.75054 C1005.81672,4268.75095 1005.00161,4268.75171 1004.18656,4268.75013 C1003.79395,4268.74937 1003.65303,4268.61143 1003.65296,4268.22263 C1003.65207,4264.05117 1003.65201,4259.87977 1003.65316,4255.70831 C1003.65323,4255.34031 1003.79878,4255.19626 1004.16706,4255.19564 C1005.35576,4255.19385 1006.54445,4255.20133 1007.73295,4255.18921 C1007.95507,4255.18699 1008.07629,4255.26194 1008.19249,4255.44751 C1009.47957,4257.50342 1010.77536,4259.55378 1012.06883,4261.60557 C1012.13536,4261.71112 1012.20276,4261.81613 1012.34708,4261.91866 C1012.34708,4261.80494 1012.34708,4261.69115 1012.34708,4261.57743 C1012.34708,4259.64602 1012.34681,4257.7146 1012.34729,4255.78319 C1012.34736,4255.31396 1012.46355,4255.1955 1012.92349,4255.19516 C1013.74989,4255.19447 1014.57628,4255.19351 1015.40268,4255.19564 C1015.75642,4255.1966 1015.90122,4255.33496 1015.90135,4255.6847 C1015.90305,4259.87902 1015.90305,4264.07327 1015.90149,4268.26758 C1015.90135,4268.62913 1015.77395,4268.74931 1015.40404,4268.74999 C1014.47579,4268.75184 1013.5474,4268.74196 1012.61936,4268.75677 C1012.38316,4268.76035 1012.25603,4268.67676 1012.13563,4268.47917 C1010.58965,4265.94099 1009.0356,4263.40789 1007.48283,4260.87389 C1007.42025,4260.77177 1007.35012,4260.67432 1007.28353,4260.57473 C1007.25832,4260.57851 1007.23312,4260.58235 1007.20784,4260.58619 L1007.20784,4260.58619 Z M1055.48103,4261.91214 L1055.48103,4261.54909 C1055.48103,4259.62968 1055.48082,4257.71028 1055.48123,4255.79087 C1055.4813,4255.30696 1055.59457,4255.19529 1056.08346,4255.19502 C1056.89831,4255.19468 1057.71308,4255.19365 1058.52792,4255.19557 C1058.89852,4255.19639 1059.03564,4255.33324 1059.03577,4255.70989 C1059.03686,4259.89137 1059.03693,4264.07292 1059.03564,4268.25448 C1059.0355,4268.62508 1058.91306,4268.74896 1058.5513,4268.74985 C1057.61197,4268.75212 1056.67258,4268.7423 1055.73346,4268.75675 C1055.50909,4268.76008 1055.39025,4268.68006 1055.27718,4268.49462 C1053.76029,4266.0064 1052.23633,4263.52271 1050.71401,4261.03792 C1050.61976,4260.88405 1050.52429,4260.73094 1050.35959,4260.58029 C1050.35367,4260.70561 1050.34267,4260.831 1050.3426,4260.95639 C1050.34158,4263.35559 1050.34199,4265.75486 1050.34165,4268.15414 C1050.34158,4268.66324 1050.25494,4268.75033 1049.75226,4268.75054 C1048.94876,4268.75088 1048.14527,4268.75136 1047.34177,4268.75033 C1046.92382,4268.74979 1046.78683,4268.61801 1046.78677,4268.21007 C1046.78602,4264.05137 1046.78602,4259.89268 1046.78677,4255.73405 C1046.78683,4255.33791 1046.92429,4255.19612 1047.30929,4255.19557 C1048.49758,4255.19392 1049.68587,4255.2025 1050.87403,4255.18831 C1051.10267,4255.18569 1051.21513,4255.27697 1051.32738,4255.45589 C1052.64613,4257.55785 1053.9712,4259.65576 1055.29505,4261.75443 C1055.33127,4261.81194 1055.37224,4261.86657 1055.41097,4261.92251 C1055.43428,4261.91901 1055.45765,4261.91558 1055.48103,4261.91214 L1055.48103,4261.91214 Z M905.439249,4273.88984 C905.63202,4274.0028 905.741961,4274.08983 905.866715,4274.13698 C908.122754,4274.98931 910.353583,4275.92228 912.645839,4276.66075 C914.808312,4277.35742 917.020591,4277.91827 919.239122,4278.40919 C921.259106,4278.85618 923.310142,4279.17909 925.360092,4279.46412 C927.320553,4279.73672 929.296982,4279.89258 931.267295,4280.09106 C931.419365,4280.10637 931.584073,4280.07219 931.733153,4280.02765 C932.600724,4279.7685 933.470469,4279.51511 934.330091,4279.23064 C936.789228,4278.41695 939.15779,4277.39654 941.359062,4276.00916 C943.849048,4274.43992 945.925362,4272.45799 947.349163,4269.83388 C947.587527,4269.39451 947.8051,4268.96179 947.799371,4268.42262 C947.776629,4266.34276 947.790219,4264.26248 947.790559,4262.18228 C947.790626,4261.72272 947.763991,4261.65217 947.293784,4261.64675 C945.858636,4261.63021 944.420362,4261.59226 942.988408,4261.6648 C940.817917,4261.77481 938.712929,4262.26079 936.660329,4262.98464 C934.527822,4263.7367 932.513817,4264.75148 930.507355,4265.783 C927.572847,4267.29172 924.627603,4268.77614 921.545646,4269.96167 C918.377734,4271.18028 915.127671,4272.12396 911.804224,4272.78309 C909.796471,4273.18136 907.763372,4273.44888 905.742029,4273.77763 C905.671362,4273.78909 905.604976,4273.82738 905.439249,4273.88984 L905.439249,4273.88984 Z M923.162761,4281.98535 C923.16147,4281.94307 923.160179,4281.90079 923.158888,4281.85845 C923.043103,4281.83052 922.92827,4281.79778 922.811466,4281.77534 C921.21127,4281.46876 919.604211,4281.19451 918.011829,4280.85101 C915.399331,4280.28755 912.815643,4279.5998 910.305272,4278.67349 C908.10733,4277.86241 905.921143,4277.01337 903.760708,4276.106 C901.327595,4275.08409 898.935659,4273.96272 896.513485,4272.91377 C894.586455,4272.07921 892.592699,4271.43477 890.542274,4270.98963 C887.768329,4270.38746 884.958508,4270.27154 882.132854,4270.43502 C881.691458,4270.46055 881.652115,4270.50454 881.652115,4270.94495 C881.652115,4274.70469 881.652115,4278.46437 881.653338,4282.22405 C881.653406,4282.36083 881.660405,4282.49809 881.673315,4282.63432 C881.812339,4284.10316 882.294708,4285.46288 883.007424,4286.73777 C883.974404,4288.46741 885.215218,4289.93399 886.980394,4290.90024 C888.024225,4291.4716 889.039857,4292.09559 890.066224,4292.69941 C890.497904,4292.95334 890.526986,4292.96089 890.875156,4292.59989 C892.481739,4290.93394 894.379075,4289.67765 896.420871,4288.6405 C898.804246,4287.42978 901.311559,4286.52714 903.890015,4285.85895 C906.321022,4285.22892 908.768948,4284.64954 911.232162,4284.16569 C914.862942,4283.45234 918.513971,4282.84413 922.156099,4282.18911 C922.492921,4282.12858 922.82723,4282.05364 923.162761,4281.98535 L923.162761,4281.98535 Z M947.751556,4274.06176 C947.590313,4274.20396 947.488933,4274.28344 947.398969,4274.37444 C946.863532,4274.91567 946.355954,4275.48798 945.792658,4275.99757 C943.610548,4277.97153 941.089033,4279.39171 938.405392,4280.53792 C935.605083,4281.73395 932.702919,4282.6206 929.74524,4283.30018 C927.022121,4283.92582 924.278074,4284.46272 921.534231,4284.99091 C918.745065,4285.52788 915.945776,4286.01145 913.149272,4286.50916 C910.285159,4287.01888 907.442654,4287.62483 904.636025,4288.3983 C902.175461,4289.07637 899.768576,4289.90207 897.487872,4291.06784 C895.937075,4291.86053 894.482425,4292.80208 893.204171,4294.00209 C892.906555,4294.28149 892.916612,4294.36041 893.251939,4294.55608 C895.680976,4295.97372 898.110895,4297.38972 900.540339,4298.80661 C903.273583,4300.40063 906.009136,4301.99061 908.738507,4303.59136 C909.787705,4304.20677 910.840709,4304.79981 912.044831,4305.06377 C913.338917,4305.34749 914.644215,4305.44234 915.957803,4305.29759 C917.329826,4305.14633 918.644025,4304.78451 919.84937,4304.07383 C921.099834,4303.3366 922.358247,4302.61309 923.612107,4301.88176 C929.597655,4298.39091 935.566284,4294.86993 941.577789,4291.42534 C943.483755,4290.33328 945.115955,4289.01818 946.220872,4287.08909 C947.211634,4285.35932 947.833298,4283.53428 947.799052,4281.49772 C947.75971,4279.15583 947.791374,4276.81276 947.790219,4274.47018 C947.790151,4274.36353 947.770649,4274.25688 947.751556,4274.06176 L947.751556,4274.06176 Z M881.646476,4260.99235 L881.652931,4260.99235 C881.652931,4262.82096 881.652931,4264.64949 881.652931,4266.4781 C881.652931,4266.79813 881.636759,4267.11939 881.661696,4267.43742 C881.67053,4267.54984 881.782373,4267.74942 881.84244,4267.74764 C882.41987,4267.73027 883.006133,4267.89327 883.517856,4267.3736 C888.561768,4262.25125 893.624571,4257.14785 898.682006,4252.03909 C900.210515,4250.49517 901.742355,4248.95461 903.265225,4247.40506 C903.627732,4247.0363 904.023331,4246.81201 904.559379,4246.86321 C905.034614,4246.90858 905.327269,4247.22366 905.630321,4247.52962 C909.744897,4251.6831 913.857707,4255.83844 917.970992,4259.99329 C918.325685,4260.35154 918.325957,4260.35168 918.687581,4259.9865 C922.993093,4255.63783 927.298402,4251.28889 931.605001,4246.94132 C931.756663,4246.7882 931.908936,4246.63035 932.083293,4246.50688 C932.510624,4246.20408 933.319895,4246.19598 933.925795,4246.81318 C937.662983,4250.62028 941.430952,4254.39657 945.169431,4258.20243 C945.640792,4258.6823 946.098088,4259.04975 946.805368,4258.95772 C946.981627,4258.93472 947.166108,4258.97426 947.346649,4258.98716 C947.748906,4259.01605 947.790355,4258.97707 947.790423,4258.55616 C947.790694,4257.63046 947.764398,4256.70387 947.795723,4255.77928 C947.84451,4254.3396 947.604243,4252.96067 947.062554,4251.63046 C946.394889,4249.99087 945.488587,4248.50054 944.140957,4247.3553 C943.359613,4246.69136 942.476889,4246.1336 941.590835,4245.6131 C936.994366,4242.91302 932.381249,4240.24176 927.775606,4237.55767 C925.080686,4235.98719 922.39392,4234.40243 919.693496,4232.84176 C918.286954,4232.02889 916.740506,4231.709 915.136573,4231.65348 C913.189226,4231.58608 911.32498,4231.91956 909.615047,4232.91265 C906.623666,4234.64998 903.637041,4236.39575 900.64831,4238.13781 C896.366172,4240.63392 892.102108,4243.16249 887.793267,4245.6107 C885.935816,4246.66604 884.348055,4247.95452 883.257747,4249.82203 C882.264063,4251.52408 881.622354,4253.32606 881.642007,4255.3353 C881.661356,4257.2208 881.646476,4259.10665 881.646476,4260.99235 L881.646476,4260.99235 Z M950.42283,4268.72625 C950.422694,4272.96593 950.40693,4277.20575 950.428991,4281.44536 C950.441176,4283.85033 949.820259,4286.06814 948.66574,4288.15377 C947.317295,4290.58969 945.357038,4292.34012 942.951308,4293.70238 C938.126462,4296.43451 933.361412,4299.27419 928.569453,4302.06555 C925.903819,4303.61819 923.253473,4305.19918 920.558213,4306.6976 C918.926625,4307.60462 917.119932,4307.94572 915.26153,4307.99294 C913.909484,4308.02732 912.569532,4307.94215 911.252819,4307.60394 C910.194243,4307.33195 909.191386,4306.92916 908.243771,4306.37496 C904.219907,4304.02174 900.190538,4301.67806 896.163752,4299.32999 C892.548668,4297.22199 888.925023,4295.12874 885.322917,4292.99836 C882.968353,4291.60584 881.355654,4289.53119 880.206775,4287.06899 C879.530616,4285.61991 879.120544,4284.09356 879.01434,4282.48999 C879.006798,4282.37613 879.003808,4282.26179 879.003808,4282.14766 C879.003197,4273.0511 878.991441,4263.95447 879.012573,4254.85797 C879.016854,4253.00205 879.550457,4251.25553 880.374337,4249.59857 C881.541834,4247.25057 883.129732,4245.28456 885.40765,4243.94893 C887.775328,4242.56073 890.149801,4241.18427 892.520809,4239.80177 C896.576746,4237.43681 900.629964,4235.06712 904.689162,4232.70786 C906.208566,4231.82471 907.712683,4230.90753 909.276526,4230.11161 C910.790359,4229.34116 912.449127,4229.06046 914.141801,4229.01009 C915.724874,4228.96301 917.29823,4229.06794 918.799017,4229.59874 C919.711094,4229.9213 920.611757,4230.32025 921.450382,4230.80369 C926.166305,4233.52237 930.862048,4236.27674 935.564246,4239.01972 C938.434474,4240.69397 941.316186,4242.34853 944.169631,4244.0514 C946.2842,4245.31339 947.795859,4247.15936 948.922655,4249.33784 C949.770385,4250.97668 950.305142,4252.71078 950.404348,4254.56814 C950.411686,4254.70486 950.422218,4254.84178 950.422218,4254.97856 C950.42317,4259.56112 950.423034,4264.14368 950.42283,4268.72625 L950.42283,4268.72625 Z" id="Fill-1"></path>
        </g>
    </g>
</svg>